%TF.GenerationSoftware,KiCad,Pcbnew,(5.1.9)-1*%
%TF.CreationDate,2022-03-31T17:20:55+02:00*%
%TF.ProjectId,Balance ruche,42616c61-6e63-4652-9072-756368652e6b,rev?*%
%TF.SameCoordinates,Original*%
%TF.FileFunction,Legend,Top*%
%TF.FilePolarity,Positive*%
%FSLAX46Y46*%
G04 Gerber Fmt 4.6, Leading zero omitted, Abs format (unit mm)*
G04 Created by KiCad (PCBNEW (5.1.9)-1) date 2022-03-31 17:20:55*
%MOMM*%
%LPD*%
G01*
G04 APERTURE LIST*
%ADD10C,0.120000*%
%ADD11C,0.050000*%
%ADD12C,0.150000*%
%ADD13C,0.100000*%
G04 APERTURE END LIST*
D10*
%TO.C,Q8*%
X181590000Y-82860000D02*
X177990000Y-82860000D01*
X177951522Y-82871522D02*
G75*
G03*
X179790000Y-87310000I1838478J-1838478D01*
G01*
X181628478Y-82871522D02*
G75*
G02*
X179790000Y-87310000I-1838478J-1838478D01*
G01*
%TO.C,R6*%
X167450000Y-97940000D02*
X169290000Y-97940000D01*
X169290000Y-97940000D02*
X169290000Y-94100000D01*
X169290000Y-94100000D02*
X167450000Y-94100000D01*
X167450000Y-94100000D02*
X167450000Y-97940000D01*
X168370000Y-98890000D02*
X168370000Y-97940000D01*
X168370000Y-93150000D02*
X168370000Y-94100000D01*
%TO.C,R5*%
X170740000Y-97940000D02*
X172580000Y-97940000D01*
X172580000Y-97940000D02*
X172580000Y-94100000D01*
X172580000Y-94100000D02*
X170740000Y-94100000D01*
X170740000Y-94100000D02*
X170740000Y-97940000D01*
X171660000Y-98890000D02*
X171660000Y-97940000D01*
X171660000Y-93150000D02*
X171660000Y-94100000D01*
%TO.C,A1*%
X218120000Y-90570000D02*
X220660000Y-90570000D01*
X220660000Y-90570000D02*
X220660000Y-87900000D01*
X218120000Y-87900000D02*
X179890000Y-87900000D01*
X223330000Y-87900000D02*
X220660000Y-87900000D01*
X220660000Y-103270000D02*
X220660000Y-105940000D01*
X220660000Y-103270000D02*
X182560000Y-103270000D01*
X182560000Y-103270000D02*
X182560000Y-105940000D01*
X218120000Y-90570000D02*
X218120000Y-87900000D01*
X218120000Y-90570000D02*
X182560000Y-90570000D01*
X182560000Y-90570000D02*
X182560000Y-87900000D01*
X179890000Y-87900000D02*
X179890000Y-105940000D01*
X179890000Y-105940000D02*
X223330000Y-105940000D01*
X223330000Y-105940000D02*
X223330000Y-87900000D01*
%TO.C,R21*%
X181380000Y-114880000D02*
X183220000Y-114880000D01*
X183220000Y-114880000D02*
X183220000Y-111040000D01*
X183220000Y-111040000D02*
X181380000Y-111040000D01*
X181380000Y-111040000D02*
X181380000Y-114880000D01*
X182300000Y-115830000D02*
X182300000Y-114880000D01*
X182300000Y-110090000D02*
X182300000Y-111040000D01*
%TO.C,R20*%
X186890000Y-109670000D02*
X185050000Y-109670000D01*
X185050000Y-109670000D02*
X185050000Y-113510000D01*
X185050000Y-113510000D02*
X186890000Y-113510000D01*
X186890000Y-113510000D02*
X186890000Y-109670000D01*
X185970000Y-108720000D02*
X185970000Y-109670000D01*
X185970000Y-114460000D02*
X185970000Y-113510000D01*
%TO.C,R7*%
X180320000Y-108030000D02*
X180320000Y-106190000D01*
X180320000Y-106190000D02*
X176480000Y-106190000D01*
X176480000Y-106190000D02*
X176480000Y-108030000D01*
X176480000Y-108030000D02*
X180320000Y-108030000D01*
X181270000Y-107110000D02*
X180320000Y-107110000D01*
X175530000Y-107110000D02*
X176480000Y-107110000D01*
%TO.C,R22*%
X191060000Y-117270000D02*
X191060000Y-119110000D01*
X191060000Y-119110000D02*
X194900000Y-119110000D01*
X194900000Y-119110000D02*
X194900000Y-117270000D01*
X194900000Y-117270000D02*
X191060000Y-117270000D01*
X190110000Y-118190000D02*
X191060000Y-118190000D01*
X195850000Y-118190000D02*
X194900000Y-118190000D01*
%TO.C,R8*%
X174000000Y-97880000D02*
X175840000Y-97880000D01*
X175840000Y-97880000D02*
X175840000Y-94040000D01*
X175840000Y-94040000D02*
X174000000Y-94040000D01*
X174000000Y-94040000D02*
X174000000Y-97880000D01*
X174920000Y-98830000D02*
X174920000Y-97880000D01*
X174920000Y-93090000D02*
X174920000Y-94040000D01*
%TO.C,R11*%
X229600000Y-98020000D02*
X231440000Y-98020000D01*
X231440000Y-98020000D02*
X231440000Y-94180000D01*
X231440000Y-94180000D02*
X229600000Y-94180000D01*
X229600000Y-94180000D02*
X229600000Y-98020000D01*
X230520000Y-98970000D02*
X230520000Y-98020000D01*
X230520000Y-93230000D02*
X230520000Y-94180000D01*
%TO.C,R10*%
X224800000Y-98010000D02*
X226640000Y-98010000D01*
X226640000Y-98010000D02*
X226640000Y-94170000D01*
X226640000Y-94170000D02*
X224800000Y-94170000D01*
X224800000Y-94170000D02*
X224800000Y-98010000D01*
X225720000Y-98960000D02*
X225720000Y-98010000D01*
X225720000Y-93220000D02*
X225720000Y-94170000D01*
%TO.C,C2*%
X170260000Y-127380000D02*
G75*
G03*
X170260000Y-127380000I-1370000J0D01*
G01*
X167520000Y-127380000D02*
X167450000Y-127380000D01*
%TO.C,C21*%
X179790000Y-122740000D02*
G75*
G03*
X179790000Y-122740000I-1370000J0D01*
G01*
X178420000Y-124110000D02*
X178420000Y-124180000D01*
%TO.C,C1*%
X189170000Y-127020000D02*
G75*
G03*
X189170000Y-127020000I-1370000J0D01*
G01*
X186430000Y-127020000D02*
X186360000Y-127020000D01*
%TO.C,C20*%
X192920000Y-123910000D02*
G75*
G03*
X192920000Y-123910000I-1370000J0D01*
G01*
X190180000Y-123910000D02*
X190110000Y-123910000D01*
%TO.C,R26*%
X173980000Y-83850000D02*
G75*
G03*
X173980000Y-83850000I-1370000J0D01*
G01*
X172610000Y-85220000D02*
X172610000Y-85290000D01*
%TO.C,R25*%
X185840000Y-83860000D02*
G75*
G03*
X185840000Y-83860000I-1370000J0D01*
G01*
X184470000Y-85230000D02*
X184470000Y-85300000D01*
%TO.C,R24*%
X212880000Y-82770000D02*
G75*
G03*
X212880000Y-82770000I-1370000J0D01*
G01*
X211510000Y-84140000D02*
X211510000Y-84210000D01*
%TO.C,R23*%
X224170000Y-113320000D02*
G75*
G03*
X224170000Y-113320000I-1370000J0D01*
G01*
X221430000Y-113320000D02*
X221360000Y-113320000D01*
%TO.C,R19*%
X164630000Y-121190000D02*
G75*
G03*
X164630000Y-121190000I-1370000J0D01*
G01*
X164630000Y-121190000D02*
X164700000Y-121190000D01*
%TO.C,R18*%
X164670000Y-117990000D02*
G75*
G03*
X164670000Y-117990000I-1370000J0D01*
G01*
X164670000Y-117990000D02*
X164740000Y-117990000D01*
%TO.C,R17*%
X169890000Y-118770000D02*
G75*
G03*
X169890000Y-118770000I-1370000J0D01*
G01*
X168520000Y-120140000D02*
X168520000Y-120210000D01*
%TO.C,R16*%
X165830000Y-124270000D02*
G75*
G03*
X165830000Y-124270000I-1370000J0D01*
G01*
X165830000Y-124270000D02*
X165900000Y-124270000D01*
%TO.C,R15*%
X176270000Y-120870000D02*
G75*
G03*
X176270000Y-120870000I-1370000J0D01*
G01*
X174900000Y-119500000D02*
X174900000Y-119430000D01*
%TO.C,R14*%
X158030000Y-122640000D02*
G75*
G03*
X158030000Y-122640000I-1370000J0D01*
G01*
X158030000Y-122640000D02*
X158100000Y-122640000D01*
%TO.C,R13*%
X173050000Y-120870000D02*
G75*
G03*
X173050000Y-120870000I-1370000J0D01*
G01*
X171680000Y-119500000D02*
X171680000Y-119430000D01*
%TO.C,R12*%
X187310000Y-119070000D02*
G75*
G03*
X187310000Y-119070000I-1370000J0D01*
G01*
X185940000Y-120440000D02*
X185940000Y-120510000D01*
%TO.C,R9*%
X197440000Y-83530000D02*
G75*
G03*
X197440000Y-83530000I-1370000J0D01*
G01*
X196070000Y-84900000D02*
X196070000Y-84970000D01*
%TO.C,R4*%
X191350000Y-83670000D02*
G75*
G03*
X191350000Y-83670000I-1370000J0D01*
G01*
X189980000Y-85040000D02*
X189980000Y-85110000D01*
%TO.C,R3*%
X202950000Y-83460000D02*
G75*
G03*
X202950000Y-83460000I-1370000J0D01*
G01*
X201580000Y-84830000D02*
X201580000Y-84900000D01*
%TO.C,R2*%
X227810000Y-120370000D02*
G75*
G03*
X227810000Y-120370000I-1370000J0D01*
G01*
X226440000Y-119000000D02*
X226440000Y-118930000D01*
%TO.C,R1*%
X167010000Y-101790000D02*
G75*
G03*
X167010000Y-101790000I-1370000J0D01*
G01*
X165640000Y-103160000D02*
X165640000Y-103230000D01*
%TO.C,F3*%
X199890000Y-126790000D02*
G75*
G03*
X199890000Y-126790000I-1370000J0D01*
G01*
X197150000Y-126790000D02*
X197080000Y-126790000D01*
%TO.C,F2*%
X175510000Y-128020000D02*
G75*
G03*
X175510000Y-128020000I-1370000J0D01*
G01*
X172770000Y-128020000D02*
X172700000Y-128020000D01*
%TO.C,F1*%
X162170000Y-112860000D02*
G75*
G03*
X162170000Y-112860000I-1370000J0D01*
G01*
X160800000Y-111490000D02*
X160800000Y-111420000D01*
D11*
%TO.C,U3*%
X207229200Y-114989200D02*
X224348800Y-114989200D01*
X207229200Y-128095600D02*
X224348800Y-128095600D01*
X207229200Y-114989200D02*
X207229200Y-128090800D01*
X224348800Y-114989200D02*
X224348800Y-128090800D01*
D12*
%TO.C,U2*%
X175325000Y-126135000D02*
X175325000Y-125910000D01*
X171975000Y-126135000D02*
X171975000Y-125835000D01*
X171975000Y-122785000D02*
X171975000Y-123085000D01*
X175325000Y-122785000D02*
X175325000Y-123085000D01*
X175325000Y-126135000D02*
X171975000Y-126135000D01*
X175325000Y-122785000D02*
X171975000Y-122785000D01*
X175325000Y-125910000D02*
X176550000Y-125910000D01*
D10*
%TO.C,U1*%
X187770000Y-125290000D02*
X185770000Y-125290000D01*
X185770000Y-123050000D02*
X186770000Y-123050000D01*
%TO.C,Q10*%
X169860000Y-82610000D02*
X166260000Y-82610000D01*
X166221522Y-82621522D02*
G75*
G03*
X168060000Y-87060000I1838478J-1838478D01*
G01*
X169898478Y-82621522D02*
G75*
G02*
X168060000Y-87060000I-1838478J-1838478D01*
G01*
%TO.C,Q9*%
X166240000Y-82020000D02*
X169840000Y-82020000D01*
X169878478Y-82008478D02*
G75*
G03*
X168040000Y-77570000I-1838478J1838478D01*
G01*
X166201522Y-82008478D02*
G75*
G02*
X168040000Y-77570000I1838478J1838478D01*
G01*
%TO.C,Q7*%
X177990000Y-82220000D02*
X181590000Y-82220000D01*
X181628478Y-82208478D02*
G75*
G03*
X179790000Y-77770000I-1838478J1838478D01*
G01*
X177951522Y-82208478D02*
G75*
G02*
X179790000Y-77770000I1838478J1838478D01*
G01*
%TO.C,Q6*%
X218280000Y-81870000D02*
X218280000Y-85470000D01*
X218291522Y-85508478D02*
G75*
G03*
X222730000Y-83670000I1838478J1838478D01*
G01*
X218291522Y-81831522D02*
G75*
G02*
X222730000Y-83670000I1838478J-1838478D01*
G01*
%TO.C,Q5*%
X217770000Y-85470000D02*
X217770000Y-81870000D01*
X217758478Y-81831522D02*
G75*
G03*
X213320000Y-83670000I-1838478J-1838478D01*
G01*
X217758478Y-85508478D02*
G75*
G02*
X213320000Y-83670000I-1838478J1838478D01*
G01*
%TO.C,Q4*%
X199610000Y-123850000D02*
X199610000Y-120250000D01*
X199598478Y-120211522D02*
G75*
G03*
X195160000Y-122050000I-1838478J-1838478D01*
G01*
X199598478Y-123888478D02*
G75*
G02*
X195160000Y-122050000I-1838478J1838478D01*
G01*
%TO.C,Q3*%
X199230000Y-114900000D02*
X199230000Y-111300000D01*
X199218478Y-111261522D02*
G75*
G03*
X194780000Y-113100000I-1838478J-1838478D01*
G01*
X199218478Y-114938478D02*
G75*
G02*
X194780000Y-113100000I-1838478J1838478D01*
G01*
%TO.C,Q2*%
X194220000Y-114900000D02*
X194220000Y-111300000D01*
X194208478Y-111261522D02*
G75*
G03*
X189770000Y-113100000I-1838478J-1838478D01*
G01*
X194208478Y-114938478D02*
G75*
G02*
X189770000Y-113100000I-1838478J1838478D01*
G01*
%TO.C,Q1*%
X168600000Y-107360000D02*
X172200000Y-107360000D01*
X172238478Y-107348478D02*
G75*
G03*
X170400000Y-102910000I-1838478J1838478D01*
G01*
X168561522Y-107348478D02*
G75*
G02*
X170400000Y-102910000I1838478J1838478D01*
G01*
%TO.C,J201*%
X155620000Y-119710000D02*
X160820000Y-119710000D01*
X155620000Y-119650000D02*
X155620000Y-119710000D01*
X160820000Y-117050000D02*
X160820000Y-119710000D01*
X155620000Y-119650000D02*
X158220000Y-119650000D01*
X158220000Y-119650000D02*
X158220000Y-117050000D01*
X158220000Y-117050000D02*
X160820000Y-117050000D01*
X155620000Y-118380000D02*
X155620000Y-117050000D01*
X155620000Y-117050000D02*
X156950000Y-117050000D01*
%TO.C,J200*%
X169990000Y-132790000D02*
X175190000Y-132790000D01*
X169990000Y-132730000D02*
X169990000Y-132790000D01*
X175190000Y-130130000D02*
X175190000Y-132790000D01*
X169990000Y-132730000D02*
X172590000Y-132730000D01*
X172590000Y-132730000D02*
X172590000Y-130130000D01*
X172590000Y-130130000D02*
X175190000Y-130130000D01*
X169990000Y-131460000D02*
X169990000Y-130130000D01*
X169990000Y-130130000D02*
X171320000Y-130130000D01*
%TO.C,J101*%
X215500000Y-110290000D02*
X215500000Y-107630000D01*
X205280000Y-110290000D02*
X215500000Y-110290000D01*
X205280000Y-107630000D02*
X215500000Y-107630000D01*
X205280000Y-110290000D02*
X205280000Y-107630000D01*
X204010000Y-110290000D02*
X202680000Y-110290000D01*
X202680000Y-110290000D02*
X202680000Y-108960000D01*
%TO.C,J100*%
X205900000Y-80830000D02*
X205900000Y-78170000D01*
X193140000Y-80830000D02*
X205900000Y-80830000D01*
X193140000Y-78170000D02*
X205900000Y-78170000D01*
X193140000Y-80830000D02*
X193140000Y-78170000D01*
X191870000Y-80830000D02*
X190540000Y-80830000D01*
X190540000Y-80830000D02*
X190540000Y-79500000D01*
%TO.C,J11*%
X205750000Y-119780000D02*
X200550000Y-119780000D01*
X205750000Y-119840000D02*
X205750000Y-119780000D01*
X200550000Y-122440000D02*
X200550000Y-119780000D01*
X205750000Y-119840000D02*
X203150000Y-119840000D01*
X203150000Y-119840000D02*
X203150000Y-122440000D01*
X203150000Y-122440000D02*
X200550000Y-122440000D01*
X205750000Y-121110000D02*
X205750000Y-122440000D01*
X205750000Y-122440000D02*
X204420000Y-122440000D01*
%TO.C,J8*%
X173570000Y-110900000D02*
X173570000Y-116100000D01*
X173630000Y-110900000D02*
X173570000Y-110900000D01*
X176230000Y-116100000D02*
X173570000Y-116100000D01*
X173630000Y-110900000D02*
X173630000Y-113500000D01*
X173630000Y-113500000D02*
X176230000Y-113500000D01*
X176230000Y-113500000D02*
X176230000Y-116100000D01*
X174900000Y-110900000D02*
X176230000Y-110900000D01*
X176230000Y-110900000D02*
X176230000Y-112230000D01*
%TO.C,J7*%
X231810000Y-124770000D02*
X231810000Y-119570000D01*
X231750000Y-124770000D02*
X231810000Y-124770000D01*
X229150000Y-119570000D02*
X231810000Y-119570000D01*
X231750000Y-124770000D02*
X231750000Y-122170000D01*
X231750000Y-122170000D02*
X229150000Y-122170000D01*
X229150000Y-122170000D02*
X229150000Y-119570000D01*
X230480000Y-124770000D02*
X229150000Y-124770000D01*
X229150000Y-124770000D02*
X229150000Y-123440000D01*
%TO.C,J6*%
X168600000Y-109740000D02*
X168600000Y-114940000D01*
X168660000Y-109740000D02*
X168600000Y-109740000D01*
X171260000Y-114940000D02*
X168600000Y-114940000D01*
X168660000Y-109740000D02*
X168660000Y-112340000D01*
X168660000Y-112340000D02*
X171260000Y-112340000D01*
X171260000Y-112340000D02*
X171260000Y-114940000D01*
X169930000Y-109740000D02*
X171260000Y-109740000D01*
X171260000Y-109740000D02*
X171260000Y-111070000D01*
%TO.C,J5*%
X160830000Y-96350000D02*
X160830000Y-101550000D01*
X160890000Y-96350000D02*
X160830000Y-96350000D01*
X163490000Y-101550000D02*
X160830000Y-101550000D01*
X160890000Y-96350000D02*
X160890000Y-98950000D01*
X160890000Y-98950000D02*
X163490000Y-98950000D01*
X163490000Y-98950000D02*
X163490000Y-101550000D01*
X162160000Y-96350000D02*
X163490000Y-96350000D01*
X163490000Y-96350000D02*
X163490000Y-97680000D01*
%TO.C,J4*%
X227510000Y-90070000D02*
X230170000Y-90070000D01*
X227510000Y-82390000D02*
X227510000Y-90070000D01*
X230170000Y-82390000D02*
X230170000Y-90070000D01*
X227510000Y-82390000D02*
X230170000Y-82390000D01*
X227510000Y-81120000D02*
X227510000Y-79790000D01*
X227510000Y-79790000D02*
X228840000Y-79790000D01*
%TO.C,J1*%
X158270000Y-115760000D02*
X158270000Y-110560000D01*
X158210000Y-115760000D02*
X158270000Y-115760000D01*
X155610000Y-110560000D02*
X158270000Y-110560000D01*
X158210000Y-115760000D02*
X158210000Y-113160000D01*
X158210000Y-113160000D02*
X155610000Y-113160000D01*
X155610000Y-113160000D02*
X155610000Y-110560000D01*
X156940000Y-115760000D02*
X155610000Y-115760000D01*
X155610000Y-115760000D02*
X155610000Y-114430000D01*
%TO.C,D2*%
X183930000Y-119910000D02*
G75*
G03*
X183930000Y-119910000I-1920000J0D01*
G01*
X182010000Y-121830000D02*
X182010000Y-123490000D01*
%TO.C,D1*%
X166950000Y-107810000D02*
G75*
G03*
X166950000Y-107810000I-1920000J0D01*
G01*
X165030000Y-109730000D02*
X165030000Y-111390000D01*
%TO.C,Q8*%
D12*
X175854761Y-87797619D02*
X175759523Y-87750000D01*
X175664285Y-87654761D01*
X175521428Y-87511904D01*
X175426190Y-87464285D01*
X175330952Y-87464285D01*
X175378571Y-87702380D02*
X175283333Y-87654761D01*
X175188095Y-87559523D01*
X175140476Y-87369047D01*
X175140476Y-87035714D01*
X175188095Y-86845238D01*
X175283333Y-86750000D01*
X175378571Y-86702380D01*
X175569047Y-86702380D01*
X175664285Y-86750000D01*
X175759523Y-86845238D01*
X175807142Y-87035714D01*
X175807142Y-87369047D01*
X175759523Y-87559523D01*
X175664285Y-87654761D01*
X175569047Y-87702380D01*
X175378571Y-87702380D01*
X176378571Y-87130952D02*
X176283333Y-87083333D01*
X176235714Y-87035714D01*
X176188095Y-86940476D01*
X176188095Y-86892857D01*
X176235714Y-86797619D01*
X176283333Y-86750000D01*
X176378571Y-86702380D01*
X176569047Y-86702380D01*
X176664285Y-86750000D01*
X176711904Y-86797619D01*
X176759523Y-86892857D01*
X176759523Y-86940476D01*
X176711904Y-87035714D01*
X176664285Y-87083333D01*
X176569047Y-87130952D01*
X176378571Y-87130952D01*
X176283333Y-87178571D01*
X176235714Y-87226190D01*
X176188095Y-87321428D01*
X176188095Y-87511904D01*
X176235714Y-87607142D01*
X176283333Y-87654761D01*
X176378571Y-87702380D01*
X176569047Y-87702380D01*
X176664285Y-87654761D01*
X176711904Y-87607142D01*
X176759523Y-87511904D01*
X176759523Y-87321428D01*
X176711904Y-87226190D01*
X176664285Y-87178571D01*
X176569047Y-87130952D01*
%TO.C,R6*%
X168173333Y-90932380D02*
X167840000Y-90456190D01*
X167601904Y-90932380D02*
X167601904Y-89932380D01*
X167982857Y-89932380D01*
X168078095Y-89980000D01*
X168125714Y-90027619D01*
X168173333Y-90122857D01*
X168173333Y-90265714D01*
X168125714Y-90360952D01*
X168078095Y-90408571D01*
X167982857Y-90456190D01*
X167601904Y-90456190D01*
X169030476Y-89932380D02*
X168840000Y-89932380D01*
X168744761Y-89980000D01*
X168697142Y-90027619D01*
X168601904Y-90170476D01*
X168554285Y-90360952D01*
X168554285Y-90741904D01*
X168601904Y-90837142D01*
X168649523Y-90884761D01*
X168744761Y-90932380D01*
X168935238Y-90932380D01*
X169030476Y-90884761D01*
X169078095Y-90837142D01*
X169125714Y-90741904D01*
X169125714Y-90503809D01*
X169078095Y-90408571D01*
X169030476Y-90360952D01*
X168935238Y-90313333D01*
X168744761Y-90313333D01*
X168649523Y-90360952D01*
X168601904Y-90408571D01*
X168554285Y-90503809D01*
%TO.C,R5*%
X171463333Y-90992380D02*
X171130000Y-90516190D01*
X170891904Y-90992380D02*
X170891904Y-89992380D01*
X171272857Y-89992380D01*
X171368095Y-90040000D01*
X171415714Y-90087619D01*
X171463333Y-90182857D01*
X171463333Y-90325714D01*
X171415714Y-90420952D01*
X171368095Y-90468571D01*
X171272857Y-90516190D01*
X170891904Y-90516190D01*
X172368095Y-89992380D02*
X171891904Y-89992380D01*
X171844285Y-90468571D01*
X171891904Y-90420952D01*
X171987142Y-90373333D01*
X172225238Y-90373333D01*
X172320476Y-90420952D01*
X172368095Y-90468571D01*
X172415714Y-90563809D01*
X172415714Y-90801904D01*
X172368095Y-90897142D01*
X172320476Y-90944761D01*
X172225238Y-90992380D01*
X171987142Y-90992380D01*
X171891904Y-90944761D01*
X171844285Y-90897142D01*
%TO.C,A1*%
X221575714Y-107066666D02*
X222051904Y-107066666D01*
X221480476Y-107352380D02*
X221813809Y-106352380D01*
X222147142Y-107352380D01*
X223004285Y-107352380D02*
X222432857Y-107352380D01*
X222718571Y-107352380D02*
X222718571Y-106352380D01*
X222623333Y-106495238D01*
X222528095Y-106590476D01*
X222432857Y-106638095D01*
%TO.C,R21*%
X180832380Y-113602857D02*
X180356190Y-113936190D01*
X180832380Y-114174285D02*
X179832380Y-114174285D01*
X179832380Y-113793333D01*
X179880000Y-113698095D01*
X179927619Y-113650476D01*
X180022857Y-113602857D01*
X180165714Y-113602857D01*
X180260952Y-113650476D01*
X180308571Y-113698095D01*
X180356190Y-113793333D01*
X180356190Y-114174285D01*
X179927619Y-113221904D02*
X179880000Y-113174285D01*
X179832380Y-113079047D01*
X179832380Y-112840952D01*
X179880000Y-112745714D01*
X179927619Y-112698095D01*
X180022857Y-112650476D01*
X180118095Y-112650476D01*
X180260952Y-112698095D01*
X180832380Y-113269523D01*
X180832380Y-112650476D01*
X180832380Y-111698095D02*
X180832380Y-112269523D01*
X180832380Y-111983809D02*
X179832380Y-111983809D01*
X179975238Y-112079047D01*
X180070476Y-112174285D01*
X180118095Y-112269523D01*
%TO.C,R20*%
X188472380Y-111092857D02*
X187996190Y-111426190D01*
X188472380Y-111664285D02*
X187472380Y-111664285D01*
X187472380Y-111283333D01*
X187520000Y-111188095D01*
X187567619Y-111140476D01*
X187662857Y-111092857D01*
X187805714Y-111092857D01*
X187900952Y-111140476D01*
X187948571Y-111188095D01*
X187996190Y-111283333D01*
X187996190Y-111664285D01*
X187567619Y-110711904D02*
X187520000Y-110664285D01*
X187472380Y-110569047D01*
X187472380Y-110330952D01*
X187520000Y-110235714D01*
X187567619Y-110188095D01*
X187662857Y-110140476D01*
X187758095Y-110140476D01*
X187900952Y-110188095D01*
X188472380Y-110759523D01*
X188472380Y-110140476D01*
X187472380Y-109521428D02*
X187472380Y-109426190D01*
X187520000Y-109330952D01*
X187567619Y-109283333D01*
X187662857Y-109235714D01*
X187853333Y-109188095D01*
X188091428Y-109188095D01*
X188281904Y-109235714D01*
X188377142Y-109283333D01*
X188424761Y-109330952D01*
X188472380Y-109426190D01*
X188472380Y-109521428D01*
X188424761Y-109616666D01*
X188377142Y-109664285D01*
X188281904Y-109711904D01*
X188091428Y-109759523D01*
X187853333Y-109759523D01*
X187662857Y-109711904D01*
X187567619Y-109664285D01*
X187520000Y-109616666D01*
X187472380Y-109521428D01*
%TO.C,R7*%
X178233333Y-109482380D02*
X177900000Y-109006190D01*
X177661904Y-109482380D02*
X177661904Y-108482380D01*
X178042857Y-108482380D01*
X178138095Y-108530000D01*
X178185714Y-108577619D01*
X178233333Y-108672857D01*
X178233333Y-108815714D01*
X178185714Y-108910952D01*
X178138095Y-108958571D01*
X178042857Y-109006190D01*
X177661904Y-109006190D01*
X178566666Y-108482380D02*
X179233333Y-108482380D01*
X178804761Y-109482380D01*
%TO.C,R22*%
X189657142Y-120552380D02*
X189323809Y-120076190D01*
X189085714Y-120552380D02*
X189085714Y-119552380D01*
X189466666Y-119552380D01*
X189561904Y-119600000D01*
X189609523Y-119647619D01*
X189657142Y-119742857D01*
X189657142Y-119885714D01*
X189609523Y-119980952D01*
X189561904Y-120028571D01*
X189466666Y-120076190D01*
X189085714Y-120076190D01*
X190038095Y-119647619D02*
X190085714Y-119600000D01*
X190180952Y-119552380D01*
X190419047Y-119552380D01*
X190514285Y-119600000D01*
X190561904Y-119647619D01*
X190609523Y-119742857D01*
X190609523Y-119838095D01*
X190561904Y-119980952D01*
X189990476Y-120552380D01*
X190609523Y-120552380D01*
X190990476Y-119647619D02*
X191038095Y-119600000D01*
X191133333Y-119552380D01*
X191371428Y-119552380D01*
X191466666Y-119600000D01*
X191514285Y-119647619D01*
X191561904Y-119742857D01*
X191561904Y-119838095D01*
X191514285Y-119980952D01*
X190942857Y-120552380D01*
X191561904Y-120552380D01*
%TO.C,R8*%
X174613333Y-90992380D02*
X174280000Y-90516190D01*
X174041904Y-90992380D02*
X174041904Y-89992380D01*
X174422857Y-89992380D01*
X174518095Y-90040000D01*
X174565714Y-90087619D01*
X174613333Y-90182857D01*
X174613333Y-90325714D01*
X174565714Y-90420952D01*
X174518095Y-90468571D01*
X174422857Y-90516190D01*
X174041904Y-90516190D01*
X175184761Y-90420952D02*
X175089523Y-90373333D01*
X175041904Y-90325714D01*
X174994285Y-90230476D01*
X174994285Y-90182857D01*
X175041904Y-90087619D01*
X175089523Y-90040000D01*
X175184761Y-89992380D01*
X175375238Y-89992380D01*
X175470476Y-90040000D01*
X175518095Y-90087619D01*
X175565714Y-90182857D01*
X175565714Y-90230476D01*
X175518095Y-90325714D01*
X175470476Y-90373333D01*
X175375238Y-90420952D01*
X175184761Y-90420952D01*
X175089523Y-90468571D01*
X175041904Y-90516190D01*
X174994285Y-90611428D01*
X174994285Y-90801904D01*
X175041904Y-90897142D01*
X175089523Y-90944761D01*
X175184761Y-90992380D01*
X175375238Y-90992380D01*
X175470476Y-90944761D01*
X175518095Y-90897142D01*
X175565714Y-90801904D01*
X175565714Y-90611428D01*
X175518095Y-90516190D01*
X175470476Y-90468571D01*
X175375238Y-90420952D01*
%TO.C,R11*%
X232892380Y-96762857D02*
X232416190Y-97096190D01*
X232892380Y-97334285D02*
X231892380Y-97334285D01*
X231892380Y-96953333D01*
X231940000Y-96858095D01*
X231987619Y-96810476D01*
X232082857Y-96762857D01*
X232225714Y-96762857D01*
X232320952Y-96810476D01*
X232368571Y-96858095D01*
X232416190Y-96953333D01*
X232416190Y-97334285D01*
X232892380Y-95810476D02*
X232892380Y-96381904D01*
X232892380Y-96096190D02*
X231892380Y-96096190D01*
X232035238Y-96191428D01*
X232130476Y-96286666D01*
X232178095Y-96381904D01*
X232892380Y-94858095D02*
X232892380Y-95429523D01*
X232892380Y-95143809D02*
X231892380Y-95143809D01*
X232035238Y-95239047D01*
X232130476Y-95334285D01*
X232178095Y-95429523D01*
%TO.C,R10*%
X227982380Y-96612857D02*
X227506190Y-96946190D01*
X227982380Y-97184285D02*
X226982380Y-97184285D01*
X226982380Y-96803333D01*
X227030000Y-96708095D01*
X227077619Y-96660476D01*
X227172857Y-96612857D01*
X227315714Y-96612857D01*
X227410952Y-96660476D01*
X227458571Y-96708095D01*
X227506190Y-96803333D01*
X227506190Y-97184285D01*
X227982380Y-95660476D02*
X227982380Y-96231904D01*
X227982380Y-95946190D02*
X226982380Y-95946190D01*
X227125238Y-96041428D01*
X227220476Y-96136666D01*
X227268095Y-96231904D01*
X226982380Y-95041428D02*
X226982380Y-94946190D01*
X227030000Y-94850952D01*
X227077619Y-94803333D01*
X227172857Y-94755714D01*
X227363333Y-94708095D01*
X227601428Y-94708095D01*
X227791904Y-94755714D01*
X227887142Y-94803333D01*
X227934761Y-94850952D01*
X227982380Y-94946190D01*
X227982380Y-95041428D01*
X227934761Y-95136666D01*
X227887142Y-95184285D01*
X227791904Y-95231904D01*
X227601428Y-95279523D01*
X227363333Y-95279523D01*
X227172857Y-95231904D01*
X227077619Y-95184285D01*
X227030000Y-95136666D01*
X226982380Y-95041428D01*
%TO.C,C2*%
X163933333Y-127917142D02*
X163885714Y-127964761D01*
X163742857Y-128012380D01*
X163647619Y-128012380D01*
X163504761Y-127964761D01*
X163409523Y-127869523D01*
X163361904Y-127774285D01*
X163314285Y-127583809D01*
X163314285Y-127440952D01*
X163361904Y-127250476D01*
X163409523Y-127155238D01*
X163504761Y-127060000D01*
X163647619Y-127012380D01*
X163742857Y-127012380D01*
X163885714Y-127060000D01*
X163933333Y-127107619D01*
X164314285Y-127107619D02*
X164361904Y-127060000D01*
X164457142Y-127012380D01*
X164695238Y-127012380D01*
X164790476Y-127060000D01*
X164838095Y-127107619D01*
X164885714Y-127202857D01*
X164885714Y-127298095D01*
X164838095Y-127440952D01*
X164266666Y-128012380D01*
X164885714Y-128012380D01*
%TO.C,C21*%
X177747142Y-120977142D02*
X177699523Y-121024761D01*
X177556666Y-121072380D01*
X177461428Y-121072380D01*
X177318571Y-121024761D01*
X177223333Y-120929523D01*
X177175714Y-120834285D01*
X177128095Y-120643809D01*
X177128095Y-120500952D01*
X177175714Y-120310476D01*
X177223333Y-120215238D01*
X177318571Y-120120000D01*
X177461428Y-120072380D01*
X177556666Y-120072380D01*
X177699523Y-120120000D01*
X177747142Y-120167619D01*
X178128095Y-120167619D02*
X178175714Y-120120000D01*
X178270952Y-120072380D01*
X178509047Y-120072380D01*
X178604285Y-120120000D01*
X178651904Y-120167619D01*
X178699523Y-120262857D01*
X178699523Y-120358095D01*
X178651904Y-120500952D01*
X178080476Y-121072380D01*
X178699523Y-121072380D01*
X179651904Y-121072380D02*
X179080476Y-121072380D01*
X179366190Y-121072380D02*
X179366190Y-120072380D01*
X179270952Y-120215238D01*
X179175714Y-120310476D01*
X179080476Y-120358095D01*
%TO.C,C1*%
X186363333Y-129747142D02*
X186315714Y-129794761D01*
X186172857Y-129842380D01*
X186077619Y-129842380D01*
X185934761Y-129794761D01*
X185839523Y-129699523D01*
X185791904Y-129604285D01*
X185744285Y-129413809D01*
X185744285Y-129270952D01*
X185791904Y-129080476D01*
X185839523Y-128985238D01*
X185934761Y-128890000D01*
X186077619Y-128842380D01*
X186172857Y-128842380D01*
X186315714Y-128890000D01*
X186363333Y-128937619D01*
X187315714Y-129842380D02*
X186744285Y-129842380D01*
X187030000Y-129842380D02*
X187030000Y-128842380D01*
X186934761Y-128985238D01*
X186839523Y-129080476D01*
X186744285Y-129128095D01*
%TO.C,C20*%
X190077142Y-126547142D02*
X190029523Y-126594761D01*
X189886666Y-126642380D01*
X189791428Y-126642380D01*
X189648571Y-126594761D01*
X189553333Y-126499523D01*
X189505714Y-126404285D01*
X189458095Y-126213809D01*
X189458095Y-126070952D01*
X189505714Y-125880476D01*
X189553333Y-125785238D01*
X189648571Y-125690000D01*
X189791428Y-125642380D01*
X189886666Y-125642380D01*
X190029523Y-125690000D01*
X190077142Y-125737619D01*
X190458095Y-125737619D02*
X190505714Y-125690000D01*
X190600952Y-125642380D01*
X190839047Y-125642380D01*
X190934285Y-125690000D01*
X190981904Y-125737619D01*
X191029523Y-125832857D01*
X191029523Y-125928095D01*
X190981904Y-126070952D01*
X190410476Y-126642380D01*
X191029523Y-126642380D01*
X191648571Y-125642380D02*
X191743809Y-125642380D01*
X191839047Y-125690000D01*
X191886666Y-125737619D01*
X191934285Y-125832857D01*
X191981904Y-126023333D01*
X191981904Y-126261428D01*
X191934285Y-126451904D01*
X191886666Y-126547142D01*
X191839047Y-126594761D01*
X191743809Y-126642380D01*
X191648571Y-126642380D01*
X191553333Y-126594761D01*
X191505714Y-126547142D01*
X191458095Y-126451904D01*
X191410476Y-126261428D01*
X191410476Y-126023333D01*
X191458095Y-125832857D01*
X191505714Y-125737619D01*
X191553333Y-125690000D01*
X191648571Y-125642380D01*
%TO.C,R26*%
X175382380Y-85622857D02*
X174906190Y-85956190D01*
X175382380Y-86194285D02*
X174382380Y-86194285D01*
X174382380Y-85813333D01*
X174430000Y-85718095D01*
X174477619Y-85670476D01*
X174572857Y-85622857D01*
X174715714Y-85622857D01*
X174810952Y-85670476D01*
X174858571Y-85718095D01*
X174906190Y-85813333D01*
X174906190Y-86194285D01*
X174477619Y-85241904D02*
X174430000Y-85194285D01*
X174382380Y-85099047D01*
X174382380Y-84860952D01*
X174430000Y-84765714D01*
X174477619Y-84718095D01*
X174572857Y-84670476D01*
X174668095Y-84670476D01*
X174810952Y-84718095D01*
X175382380Y-85289523D01*
X175382380Y-84670476D01*
X174382380Y-83813333D02*
X174382380Y-84003809D01*
X174430000Y-84099047D01*
X174477619Y-84146666D01*
X174620476Y-84241904D01*
X174810952Y-84289523D01*
X175191904Y-84289523D01*
X175287142Y-84241904D01*
X175334761Y-84194285D01*
X175382380Y-84099047D01*
X175382380Y-83908571D01*
X175334761Y-83813333D01*
X175287142Y-83765714D01*
X175191904Y-83718095D01*
X174953809Y-83718095D01*
X174858571Y-83765714D01*
X174810952Y-83813333D01*
X174763333Y-83908571D01*
X174763333Y-84099047D01*
X174810952Y-84194285D01*
X174858571Y-84241904D01*
X174953809Y-84289523D01*
%TO.C,R25*%
X187292380Y-85772857D02*
X186816190Y-86106190D01*
X187292380Y-86344285D02*
X186292380Y-86344285D01*
X186292380Y-85963333D01*
X186340000Y-85868095D01*
X186387619Y-85820476D01*
X186482857Y-85772857D01*
X186625714Y-85772857D01*
X186720952Y-85820476D01*
X186768571Y-85868095D01*
X186816190Y-85963333D01*
X186816190Y-86344285D01*
X186387619Y-85391904D02*
X186340000Y-85344285D01*
X186292380Y-85249047D01*
X186292380Y-85010952D01*
X186340000Y-84915714D01*
X186387619Y-84868095D01*
X186482857Y-84820476D01*
X186578095Y-84820476D01*
X186720952Y-84868095D01*
X187292380Y-85439523D01*
X187292380Y-84820476D01*
X186292380Y-83915714D02*
X186292380Y-84391904D01*
X186768571Y-84439523D01*
X186720952Y-84391904D01*
X186673333Y-84296666D01*
X186673333Y-84058571D01*
X186720952Y-83963333D01*
X186768571Y-83915714D01*
X186863809Y-83868095D01*
X187101904Y-83868095D01*
X187197142Y-83915714D01*
X187244761Y-83963333D01*
X187292380Y-84058571D01*
X187292380Y-84296666D01*
X187244761Y-84391904D01*
X187197142Y-84439523D01*
%TO.C,R24*%
X209532380Y-84502857D02*
X209056190Y-84836190D01*
X209532380Y-85074285D02*
X208532380Y-85074285D01*
X208532380Y-84693333D01*
X208580000Y-84598095D01*
X208627619Y-84550476D01*
X208722857Y-84502857D01*
X208865714Y-84502857D01*
X208960952Y-84550476D01*
X209008571Y-84598095D01*
X209056190Y-84693333D01*
X209056190Y-85074285D01*
X208627619Y-84121904D02*
X208580000Y-84074285D01*
X208532380Y-83979047D01*
X208532380Y-83740952D01*
X208580000Y-83645714D01*
X208627619Y-83598095D01*
X208722857Y-83550476D01*
X208818095Y-83550476D01*
X208960952Y-83598095D01*
X209532380Y-84169523D01*
X209532380Y-83550476D01*
X208865714Y-82693333D02*
X209532380Y-82693333D01*
X208484761Y-82931428D02*
X209199047Y-83169523D01*
X209199047Y-82550476D01*
%TO.C,R23*%
X221742380Y-110942857D02*
X221266190Y-111276190D01*
X221742380Y-111514285D02*
X220742380Y-111514285D01*
X220742380Y-111133333D01*
X220790000Y-111038095D01*
X220837619Y-110990476D01*
X220932857Y-110942857D01*
X221075714Y-110942857D01*
X221170952Y-110990476D01*
X221218571Y-111038095D01*
X221266190Y-111133333D01*
X221266190Y-111514285D01*
X220837619Y-110561904D02*
X220790000Y-110514285D01*
X220742380Y-110419047D01*
X220742380Y-110180952D01*
X220790000Y-110085714D01*
X220837619Y-110038095D01*
X220932857Y-109990476D01*
X221028095Y-109990476D01*
X221170952Y-110038095D01*
X221742380Y-110609523D01*
X221742380Y-109990476D01*
X220742380Y-109657142D02*
X220742380Y-109038095D01*
X221123333Y-109371428D01*
X221123333Y-109228571D01*
X221170952Y-109133333D01*
X221218571Y-109085714D01*
X221313809Y-109038095D01*
X221551904Y-109038095D01*
X221647142Y-109085714D01*
X221694761Y-109133333D01*
X221742380Y-109228571D01*
X221742380Y-109514285D01*
X221694761Y-109609523D01*
X221647142Y-109657142D01*
%TO.C,R19*%
X159697142Y-121572380D02*
X159363809Y-121096190D01*
X159125714Y-121572380D02*
X159125714Y-120572380D01*
X159506666Y-120572380D01*
X159601904Y-120620000D01*
X159649523Y-120667619D01*
X159697142Y-120762857D01*
X159697142Y-120905714D01*
X159649523Y-121000952D01*
X159601904Y-121048571D01*
X159506666Y-121096190D01*
X159125714Y-121096190D01*
X160649523Y-121572380D02*
X160078095Y-121572380D01*
X160363809Y-121572380D02*
X160363809Y-120572380D01*
X160268571Y-120715238D01*
X160173333Y-120810476D01*
X160078095Y-120858095D01*
X161125714Y-121572380D02*
X161316190Y-121572380D01*
X161411428Y-121524761D01*
X161459047Y-121477142D01*
X161554285Y-121334285D01*
X161601904Y-121143809D01*
X161601904Y-120762857D01*
X161554285Y-120667619D01*
X161506666Y-120620000D01*
X161411428Y-120572380D01*
X161220952Y-120572380D01*
X161125714Y-120620000D01*
X161078095Y-120667619D01*
X161030476Y-120762857D01*
X161030476Y-121000952D01*
X161078095Y-121096190D01*
X161125714Y-121143809D01*
X161220952Y-121191428D01*
X161411428Y-121191428D01*
X161506666Y-121143809D01*
X161554285Y-121096190D01*
X161601904Y-121000952D01*
%TO.C,R18*%
X163927142Y-116072380D02*
X163593809Y-115596190D01*
X163355714Y-116072380D02*
X163355714Y-115072380D01*
X163736666Y-115072380D01*
X163831904Y-115120000D01*
X163879523Y-115167619D01*
X163927142Y-115262857D01*
X163927142Y-115405714D01*
X163879523Y-115500952D01*
X163831904Y-115548571D01*
X163736666Y-115596190D01*
X163355714Y-115596190D01*
X164879523Y-116072380D02*
X164308095Y-116072380D01*
X164593809Y-116072380D02*
X164593809Y-115072380D01*
X164498571Y-115215238D01*
X164403333Y-115310476D01*
X164308095Y-115358095D01*
X165450952Y-115500952D02*
X165355714Y-115453333D01*
X165308095Y-115405714D01*
X165260476Y-115310476D01*
X165260476Y-115262857D01*
X165308095Y-115167619D01*
X165355714Y-115120000D01*
X165450952Y-115072380D01*
X165641428Y-115072380D01*
X165736666Y-115120000D01*
X165784285Y-115167619D01*
X165831904Y-115262857D01*
X165831904Y-115310476D01*
X165784285Y-115405714D01*
X165736666Y-115453333D01*
X165641428Y-115500952D01*
X165450952Y-115500952D01*
X165355714Y-115548571D01*
X165308095Y-115596190D01*
X165260476Y-115691428D01*
X165260476Y-115881904D01*
X165308095Y-115977142D01*
X165355714Y-116024761D01*
X165450952Y-116072380D01*
X165641428Y-116072380D01*
X165736666Y-116024761D01*
X165784285Y-115977142D01*
X165831904Y-115881904D01*
X165831904Y-115691428D01*
X165784285Y-115596190D01*
X165736666Y-115548571D01*
X165641428Y-115500952D01*
%TO.C,R17*%
X167887142Y-117022380D02*
X167553809Y-116546190D01*
X167315714Y-117022380D02*
X167315714Y-116022380D01*
X167696666Y-116022380D01*
X167791904Y-116070000D01*
X167839523Y-116117619D01*
X167887142Y-116212857D01*
X167887142Y-116355714D01*
X167839523Y-116450952D01*
X167791904Y-116498571D01*
X167696666Y-116546190D01*
X167315714Y-116546190D01*
X168839523Y-117022380D02*
X168268095Y-117022380D01*
X168553809Y-117022380D02*
X168553809Y-116022380D01*
X168458571Y-116165238D01*
X168363333Y-116260476D01*
X168268095Y-116308095D01*
X169172857Y-116022380D02*
X169839523Y-116022380D01*
X169410952Y-117022380D01*
%TO.C,R16*%
X160877142Y-124082380D02*
X160543809Y-123606190D01*
X160305714Y-124082380D02*
X160305714Y-123082380D01*
X160686666Y-123082380D01*
X160781904Y-123130000D01*
X160829523Y-123177619D01*
X160877142Y-123272857D01*
X160877142Y-123415714D01*
X160829523Y-123510952D01*
X160781904Y-123558571D01*
X160686666Y-123606190D01*
X160305714Y-123606190D01*
X161829523Y-124082380D02*
X161258095Y-124082380D01*
X161543809Y-124082380D02*
X161543809Y-123082380D01*
X161448571Y-123225238D01*
X161353333Y-123320476D01*
X161258095Y-123368095D01*
X162686666Y-123082380D02*
X162496190Y-123082380D01*
X162400952Y-123130000D01*
X162353333Y-123177619D01*
X162258095Y-123320476D01*
X162210476Y-123510952D01*
X162210476Y-123891904D01*
X162258095Y-123987142D01*
X162305714Y-124034761D01*
X162400952Y-124082380D01*
X162591428Y-124082380D01*
X162686666Y-124034761D01*
X162734285Y-123987142D01*
X162781904Y-123891904D01*
X162781904Y-123653809D01*
X162734285Y-123558571D01*
X162686666Y-123510952D01*
X162591428Y-123463333D01*
X162400952Y-123463333D01*
X162305714Y-123510952D01*
X162258095Y-123558571D01*
X162210476Y-123653809D01*
%TO.C,R15*%
X172982380Y-120242857D02*
X172506190Y-120576190D01*
X172982380Y-120814285D02*
X171982380Y-120814285D01*
X171982380Y-120433333D01*
X172030000Y-120338095D01*
X172077619Y-120290476D01*
X172172857Y-120242857D01*
X172315714Y-120242857D01*
X172410952Y-120290476D01*
X172458571Y-120338095D01*
X172506190Y-120433333D01*
X172506190Y-120814285D01*
X172982380Y-119290476D02*
X172982380Y-119861904D01*
X172982380Y-119576190D02*
X171982380Y-119576190D01*
X172125238Y-119671428D01*
X172220476Y-119766666D01*
X172268095Y-119861904D01*
X171982380Y-118385714D02*
X171982380Y-118861904D01*
X172458571Y-118909523D01*
X172410952Y-118861904D01*
X172363333Y-118766666D01*
X172363333Y-118528571D01*
X172410952Y-118433333D01*
X172458571Y-118385714D01*
X172553809Y-118338095D01*
X172791904Y-118338095D01*
X172887142Y-118385714D01*
X172934761Y-118433333D01*
X172982380Y-118528571D01*
X172982380Y-118766666D01*
X172934761Y-118861904D01*
X172887142Y-118909523D01*
%TO.C,R14*%
X156547142Y-121112380D02*
X156213809Y-120636190D01*
X155975714Y-121112380D02*
X155975714Y-120112380D01*
X156356666Y-120112380D01*
X156451904Y-120160000D01*
X156499523Y-120207619D01*
X156547142Y-120302857D01*
X156547142Y-120445714D01*
X156499523Y-120540952D01*
X156451904Y-120588571D01*
X156356666Y-120636190D01*
X155975714Y-120636190D01*
X157499523Y-121112380D02*
X156928095Y-121112380D01*
X157213809Y-121112380D02*
X157213809Y-120112380D01*
X157118571Y-120255238D01*
X157023333Y-120350476D01*
X156928095Y-120398095D01*
X158356666Y-120445714D02*
X158356666Y-121112380D01*
X158118571Y-120064761D02*
X157880476Y-120779047D01*
X158499523Y-120779047D01*
%TO.C,R13*%
X171047142Y-117022380D02*
X170713809Y-116546190D01*
X170475714Y-117022380D02*
X170475714Y-116022380D01*
X170856666Y-116022380D01*
X170951904Y-116070000D01*
X170999523Y-116117619D01*
X171047142Y-116212857D01*
X171047142Y-116355714D01*
X170999523Y-116450952D01*
X170951904Y-116498571D01*
X170856666Y-116546190D01*
X170475714Y-116546190D01*
X171999523Y-117022380D02*
X171428095Y-117022380D01*
X171713809Y-117022380D02*
X171713809Y-116022380D01*
X171618571Y-116165238D01*
X171523333Y-116260476D01*
X171428095Y-116308095D01*
X172332857Y-116022380D02*
X172951904Y-116022380D01*
X172618571Y-116403333D01*
X172761428Y-116403333D01*
X172856666Y-116450952D01*
X172904285Y-116498571D01*
X172951904Y-116593809D01*
X172951904Y-116831904D01*
X172904285Y-116927142D01*
X172856666Y-116974761D01*
X172761428Y-117022380D01*
X172475714Y-117022380D01*
X172380476Y-116974761D01*
X172332857Y-116927142D01*
%TO.C,R12*%
X185307142Y-117282380D02*
X184973809Y-116806190D01*
X184735714Y-117282380D02*
X184735714Y-116282380D01*
X185116666Y-116282380D01*
X185211904Y-116330000D01*
X185259523Y-116377619D01*
X185307142Y-116472857D01*
X185307142Y-116615714D01*
X185259523Y-116710952D01*
X185211904Y-116758571D01*
X185116666Y-116806190D01*
X184735714Y-116806190D01*
X186259523Y-117282380D02*
X185688095Y-117282380D01*
X185973809Y-117282380D02*
X185973809Y-116282380D01*
X185878571Y-116425238D01*
X185783333Y-116520476D01*
X185688095Y-116568095D01*
X186640476Y-116377619D02*
X186688095Y-116330000D01*
X186783333Y-116282380D01*
X187021428Y-116282380D01*
X187116666Y-116330000D01*
X187164285Y-116377619D01*
X187211904Y-116472857D01*
X187211904Y-116568095D01*
X187164285Y-116710952D01*
X186592857Y-117282380D01*
X187211904Y-117282380D01*
%TO.C,R9*%
X198892380Y-84966666D02*
X198416190Y-85300000D01*
X198892380Y-85538095D02*
X197892380Y-85538095D01*
X197892380Y-85157142D01*
X197940000Y-85061904D01*
X197987619Y-85014285D01*
X198082857Y-84966666D01*
X198225714Y-84966666D01*
X198320952Y-85014285D01*
X198368571Y-85061904D01*
X198416190Y-85157142D01*
X198416190Y-85538095D01*
X198892380Y-84490476D02*
X198892380Y-84300000D01*
X198844761Y-84204761D01*
X198797142Y-84157142D01*
X198654285Y-84061904D01*
X198463809Y-84014285D01*
X198082857Y-84014285D01*
X197987619Y-84061904D01*
X197940000Y-84109523D01*
X197892380Y-84204761D01*
X197892380Y-84395238D01*
X197940000Y-84490476D01*
X197987619Y-84538095D01*
X198082857Y-84585714D01*
X198320952Y-84585714D01*
X198416190Y-84538095D01*
X198463809Y-84490476D01*
X198511428Y-84395238D01*
X198511428Y-84204761D01*
X198463809Y-84109523D01*
X198416190Y-84061904D01*
X198320952Y-84014285D01*
%TO.C,R4*%
X188092380Y-81866666D02*
X187616190Y-82200000D01*
X188092380Y-82438095D02*
X187092380Y-82438095D01*
X187092380Y-82057142D01*
X187140000Y-81961904D01*
X187187619Y-81914285D01*
X187282857Y-81866666D01*
X187425714Y-81866666D01*
X187520952Y-81914285D01*
X187568571Y-81961904D01*
X187616190Y-82057142D01*
X187616190Y-82438095D01*
X187425714Y-81009523D02*
X188092380Y-81009523D01*
X187044761Y-81247619D02*
X187759047Y-81485714D01*
X187759047Y-80866666D01*
%TO.C,R3*%
X203792380Y-85786666D02*
X203316190Y-86120000D01*
X203792380Y-86358095D02*
X202792380Y-86358095D01*
X202792380Y-85977142D01*
X202840000Y-85881904D01*
X202887619Y-85834285D01*
X202982857Y-85786666D01*
X203125714Y-85786666D01*
X203220952Y-85834285D01*
X203268571Y-85881904D01*
X203316190Y-85977142D01*
X203316190Y-86358095D01*
X202792380Y-85453333D02*
X202792380Y-84834285D01*
X203173333Y-85167619D01*
X203173333Y-85024761D01*
X203220952Y-84929523D01*
X203268571Y-84881904D01*
X203363809Y-84834285D01*
X203601904Y-84834285D01*
X203697142Y-84881904D01*
X203744761Y-84929523D01*
X203792380Y-85024761D01*
X203792380Y-85310476D01*
X203744761Y-85405714D01*
X203697142Y-85453333D01*
%TO.C,R2*%
X226293333Y-123042380D02*
X225960000Y-122566190D01*
X225721904Y-123042380D02*
X225721904Y-122042380D01*
X226102857Y-122042380D01*
X226198095Y-122090000D01*
X226245714Y-122137619D01*
X226293333Y-122232857D01*
X226293333Y-122375714D01*
X226245714Y-122470952D01*
X226198095Y-122518571D01*
X226102857Y-122566190D01*
X225721904Y-122566190D01*
X226674285Y-122137619D02*
X226721904Y-122090000D01*
X226817142Y-122042380D01*
X227055238Y-122042380D01*
X227150476Y-122090000D01*
X227198095Y-122137619D01*
X227245714Y-122232857D01*
X227245714Y-122328095D01*
X227198095Y-122470952D01*
X226626666Y-123042380D01*
X227245714Y-123042380D01*
%TO.C,R1*%
X162853333Y-104972380D02*
X162520000Y-104496190D01*
X162281904Y-104972380D02*
X162281904Y-103972380D01*
X162662857Y-103972380D01*
X162758095Y-104020000D01*
X162805714Y-104067619D01*
X162853333Y-104162857D01*
X162853333Y-104305714D01*
X162805714Y-104400952D01*
X162758095Y-104448571D01*
X162662857Y-104496190D01*
X162281904Y-104496190D01*
X163805714Y-104972380D02*
X163234285Y-104972380D01*
X163520000Y-104972380D02*
X163520000Y-103972380D01*
X163424761Y-104115238D01*
X163329523Y-104210476D01*
X163234285Y-104258095D01*
%TO.C,F3*%
X196916666Y-129088571D02*
X196583333Y-129088571D01*
X196583333Y-129612380D02*
X196583333Y-128612380D01*
X197059523Y-128612380D01*
X197345238Y-128612380D02*
X197964285Y-128612380D01*
X197630952Y-128993333D01*
X197773809Y-128993333D01*
X197869047Y-129040952D01*
X197916666Y-129088571D01*
X197964285Y-129183809D01*
X197964285Y-129421904D01*
X197916666Y-129517142D01*
X197869047Y-129564761D01*
X197773809Y-129612380D01*
X197488095Y-129612380D01*
X197392857Y-129564761D01*
X197345238Y-129517142D01*
%TO.C,F2*%
X167866666Y-129728571D02*
X167533333Y-129728571D01*
X167533333Y-130252380D02*
X167533333Y-129252380D01*
X168009523Y-129252380D01*
X168342857Y-129347619D02*
X168390476Y-129300000D01*
X168485714Y-129252380D01*
X168723809Y-129252380D01*
X168819047Y-129300000D01*
X168866666Y-129347619D01*
X168914285Y-129442857D01*
X168914285Y-129538095D01*
X168866666Y-129680952D01*
X168295238Y-130252380D01*
X168914285Y-130252380D01*
%TO.C,F1*%
X160566666Y-108458571D02*
X160233333Y-108458571D01*
X160233333Y-108982380D02*
X160233333Y-107982380D01*
X160709523Y-107982380D01*
X161614285Y-108982380D02*
X161042857Y-108982380D01*
X161328571Y-108982380D02*
X161328571Y-107982380D01*
X161233333Y-108125238D01*
X161138095Y-108220476D01*
X161042857Y-108268095D01*
%TO.C,U3*%
X211982380Y-122081904D02*
X212791904Y-122081904D01*
X212887142Y-122034285D01*
X212934761Y-121986666D01*
X212982380Y-121891428D01*
X212982380Y-121700952D01*
X212934761Y-121605714D01*
X212887142Y-121558095D01*
X212791904Y-121510476D01*
X211982380Y-121510476D01*
X211982380Y-121129523D02*
X211982380Y-120510476D01*
X212363333Y-120843809D01*
X212363333Y-120700952D01*
X212410952Y-120605714D01*
X212458571Y-120558095D01*
X212553809Y-120510476D01*
X212791904Y-120510476D01*
X212887142Y-120558095D01*
X212934761Y-120605714D01*
X212982380Y-120700952D01*
X212982380Y-120986666D01*
X212934761Y-121081904D01*
X212887142Y-121129523D01*
%TO.C,U2*%
X168748095Y-122752380D02*
X168748095Y-123561904D01*
X168795714Y-123657142D01*
X168843333Y-123704761D01*
X168938571Y-123752380D01*
X169129047Y-123752380D01*
X169224285Y-123704761D01*
X169271904Y-123657142D01*
X169319523Y-123561904D01*
X169319523Y-122752380D01*
X169748095Y-122847619D02*
X169795714Y-122800000D01*
X169890952Y-122752380D01*
X170129047Y-122752380D01*
X170224285Y-122800000D01*
X170271904Y-122847619D01*
X170319523Y-122942857D01*
X170319523Y-123038095D01*
X170271904Y-123180952D01*
X169700476Y-123752380D01*
X170319523Y-123752380D01*
%TO.C,U1*%
D13*
X187609047Y-121776190D02*
X187609047Y-122180952D01*
X187632857Y-122228571D01*
X187656666Y-122252380D01*
X187704285Y-122276190D01*
X187799523Y-122276190D01*
X187847142Y-122252380D01*
X187870952Y-122228571D01*
X187894761Y-122180952D01*
X187894761Y-121776190D01*
X188394761Y-122276190D02*
X188109047Y-122276190D01*
X188251904Y-122276190D02*
X188251904Y-121776190D01*
X188204285Y-121847619D01*
X188156666Y-121895238D01*
X188109047Y-121919047D01*
%TO.C,Q10*%
D12*
X167488571Y-88567619D02*
X167393333Y-88520000D01*
X167298095Y-88424761D01*
X167155238Y-88281904D01*
X167060000Y-88234285D01*
X166964761Y-88234285D01*
X167012380Y-88472380D02*
X166917142Y-88424761D01*
X166821904Y-88329523D01*
X166774285Y-88139047D01*
X166774285Y-87805714D01*
X166821904Y-87615238D01*
X166917142Y-87520000D01*
X167012380Y-87472380D01*
X167202857Y-87472380D01*
X167298095Y-87520000D01*
X167393333Y-87615238D01*
X167440952Y-87805714D01*
X167440952Y-88139047D01*
X167393333Y-88329523D01*
X167298095Y-88424761D01*
X167202857Y-88472380D01*
X167012380Y-88472380D01*
X168393333Y-88472380D02*
X167821904Y-88472380D01*
X168107619Y-88472380D02*
X168107619Y-87472380D01*
X168012380Y-87615238D01*
X167917142Y-87710476D01*
X167821904Y-87758095D01*
X169012380Y-87472380D02*
X169107619Y-87472380D01*
X169202857Y-87520000D01*
X169250476Y-87567619D01*
X169298095Y-87662857D01*
X169345714Y-87853333D01*
X169345714Y-88091428D01*
X169298095Y-88281904D01*
X169250476Y-88377142D01*
X169202857Y-88424761D01*
X169107619Y-88472380D01*
X169012380Y-88472380D01*
X168917142Y-88424761D01*
X168869523Y-88377142D01*
X168821904Y-88281904D01*
X168774285Y-88091428D01*
X168774285Y-87853333D01*
X168821904Y-87662857D01*
X168869523Y-87567619D01*
X168917142Y-87520000D01*
X169012380Y-87472380D01*
%TO.C,Q9*%
X164114761Y-80517619D02*
X164019523Y-80470000D01*
X163924285Y-80374761D01*
X163781428Y-80231904D01*
X163686190Y-80184285D01*
X163590952Y-80184285D01*
X163638571Y-80422380D02*
X163543333Y-80374761D01*
X163448095Y-80279523D01*
X163400476Y-80089047D01*
X163400476Y-79755714D01*
X163448095Y-79565238D01*
X163543333Y-79470000D01*
X163638571Y-79422380D01*
X163829047Y-79422380D01*
X163924285Y-79470000D01*
X164019523Y-79565238D01*
X164067142Y-79755714D01*
X164067142Y-80089047D01*
X164019523Y-80279523D01*
X163924285Y-80374761D01*
X163829047Y-80422380D01*
X163638571Y-80422380D01*
X164543333Y-80422380D02*
X164733809Y-80422380D01*
X164829047Y-80374761D01*
X164876666Y-80327142D01*
X164971904Y-80184285D01*
X165019523Y-79993809D01*
X165019523Y-79612857D01*
X164971904Y-79517619D01*
X164924285Y-79470000D01*
X164829047Y-79422380D01*
X164638571Y-79422380D01*
X164543333Y-79470000D01*
X164495714Y-79517619D01*
X164448095Y-79612857D01*
X164448095Y-79850952D01*
X164495714Y-79946190D01*
X164543333Y-79993809D01*
X164638571Y-80041428D01*
X164829047Y-80041428D01*
X164924285Y-79993809D01*
X164971904Y-79946190D01*
X165019523Y-79850952D01*
%TO.C,Q7*%
X183624761Y-78467619D02*
X183529523Y-78420000D01*
X183434285Y-78324761D01*
X183291428Y-78181904D01*
X183196190Y-78134285D01*
X183100952Y-78134285D01*
X183148571Y-78372380D02*
X183053333Y-78324761D01*
X182958095Y-78229523D01*
X182910476Y-78039047D01*
X182910476Y-77705714D01*
X182958095Y-77515238D01*
X183053333Y-77420000D01*
X183148571Y-77372380D01*
X183339047Y-77372380D01*
X183434285Y-77420000D01*
X183529523Y-77515238D01*
X183577142Y-77705714D01*
X183577142Y-78039047D01*
X183529523Y-78229523D01*
X183434285Y-78324761D01*
X183339047Y-78372380D01*
X183148571Y-78372380D01*
X183910476Y-77372380D02*
X184577142Y-77372380D01*
X184148571Y-78372380D01*
%TO.C,Q6*%
X220044761Y-80857619D02*
X219949523Y-80810000D01*
X219854285Y-80714761D01*
X219711428Y-80571904D01*
X219616190Y-80524285D01*
X219520952Y-80524285D01*
X219568571Y-80762380D02*
X219473333Y-80714761D01*
X219378095Y-80619523D01*
X219330476Y-80429047D01*
X219330476Y-80095714D01*
X219378095Y-79905238D01*
X219473333Y-79810000D01*
X219568571Y-79762380D01*
X219759047Y-79762380D01*
X219854285Y-79810000D01*
X219949523Y-79905238D01*
X219997142Y-80095714D01*
X219997142Y-80429047D01*
X219949523Y-80619523D01*
X219854285Y-80714761D01*
X219759047Y-80762380D01*
X219568571Y-80762380D01*
X220854285Y-79762380D02*
X220663809Y-79762380D01*
X220568571Y-79810000D01*
X220520952Y-79857619D01*
X220425714Y-80000476D01*
X220378095Y-80190952D01*
X220378095Y-80571904D01*
X220425714Y-80667142D01*
X220473333Y-80714761D01*
X220568571Y-80762380D01*
X220759047Y-80762380D01*
X220854285Y-80714761D01*
X220901904Y-80667142D01*
X220949523Y-80571904D01*
X220949523Y-80333809D01*
X220901904Y-80238571D01*
X220854285Y-80190952D01*
X220759047Y-80143333D01*
X220568571Y-80143333D01*
X220473333Y-80190952D01*
X220425714Y-80238571D01*
X220378095Y-80333809D01*
%TO.C,Q5*%
X215654761Y-80867619D02*
X215559523Y-80820000D01*
X215464285Y-80724761D01*
X215321428Y-80581904D01*
X215226190Y-80534285D01*
X215130952Y-80534285D01*
X215178571Y-80772380D02*
X215083333Y-80724761D01*
X214988095Y-80629523D01*
X214940476Y-80439047D01*
X214940476Y-80105714D01*
X214988095Y-79915238D01*
X215083333Y-79820000D01*
X215178571Y-79772380D01*
X215369047Y-79772380D01*
X215464285Y-79820000D01*
X215559523Y-79915238D01*
X215607142Y-80105714D01*
X215607142Y-80439047D01*
X215559523Y-80629523D01*
X215464285Y-80724761D01*
X215369047Y-80772380D01*
X215178571Y-80772380D01*
X216511904Y-79772380D02*
X216035714Y-79772380D01*
X215988095Y-80248571D01*
X216035714Y-80200952D01*
X216130952Y-80153333D01*
X216369047Y-80153333D01*
X216464285Y-80200952D01*
X216511904Y-80248571D01*
X216559523Y-80343809D01*
X216559523Y-80581904D01*
X216511904Y-80677142D01*
X216464285Y-80724761D01*
X216369047Y-80772380D01*
X216130952Y-80772380D01*
X216035714Y-80724761D01*
X215988095Y-80677142D01*
%TO.C,Q4*%
X193974761Y-123307619D02*
X193879523Y-123260000D01*
X193784285Y-123164761D01*
X193641428Y-123021904D01*
X193546190Y-122974285D01*
X193450952Y-122974285D01*
X193498571Y-123212380D02*
X193403333Y-123164761D01*
X193308095Y-123069523D01*
X193260476Y-122879047D01*
X193260476Y-122545714D01*
X193308095Y-122355238D01*
X193403333Y-122260000D01*
X193498571Y-122212380D01*
X193689047Y-122212380D01*
X193784285Y-122260000D01*
X193879523Y-122355238D01*
X193927142Y-122545714D01*
X193927142Y-122879047D01*
X193879523Y-123069523D01*
X193784285Y-123164761D01*
X193689047Y-123212380D01*
X193498571Y-123212380D01*
X194784285Y-122545714D02*
X194784285Y-123212380D01*
X194546190Y-122164761D02*
X194308095Y-122879047D01*
X194927142Y-122879047D01*
%TO.C,Q3*%
X200454761Y-113547619D02*
X200359523Y-113500000D01*
X200264285Y-113404761D01*
X200121428Y-113261904D01*
X200026190Y-113214285D01*
X199930952Y-113214285D01*
X199978571Y-113452380D02*
X199883333Y-113404761D01*
X199788095Y-113309523D01*
X199740476Y-113119047D01*
X199740476Y-112785714D01*
X199788095Y-112595238D01*
X199883333Y-112500000D01*
X199978571Y-112452380D01*
X200169047Y-112452380D01*
X200264285Y-112500000D01*
X200359523Y-112595238D01*
X200407142Y-112785714D01*
X200407142Y-113119047D01*
X200359523Y-113309523D01*
X200264285Y-113404761D01*
X200169047Y-113452380D01*
X199978571Y-113452380D01*
X200740476Y-112452380D02*
X201359523Y-112452380D01*
X201026190Y-112833333D01*
X201169047Y-112833333D01*
X201264285Y-112880952D01*
X201311904Y-112928571D01*
X201359523Y-113023809D01*
X201359523Y-113261904D01*
X201311904Y-113357142D01*
X201264285Y-113404761D01*
X201169047Y-113452380D01*
X200883333Y-113452380D01*
X200788095Y-113404761D01*
X200740476Y-113357142D01*
%TO.C,Q2*%
X188144761Y-113977619D02*
X188049523Y-113930000D01*
X187954285Y-113834761D01*
X187811428Y-113691904D01*
X187716190Y-113644285D01*
X187620952Y-113644285D01*
X187668571Y-113882380D02*
X187573333Y-113834761D01*
X187478095Y-113739523D01*
X187430476Y-113549047D01*
X187430476Y-113215714D01*
X187478095Y-113025238D01*
X187573333Y-112930000D01*
X187668571Y-112882380D01*
X187859047Y-112882380D01*
X187954285Y-112930000D01*
X188049523Y-113025238D01*
X188097142Y-113215714D01*
X188097142Y-113549047D01*
X188049523Y-113739523D01*
X187954285Y-113834761D01*
X187859047Y-113882380D01*
X187668571Y-113882380D01*
X188478095Y-112977619D02*
X188525714Y-112930000D01*
X188620952Y-112882380D01*
X188859047Y-112882380D01*
X188954285Y-112930000D01*
X189001904Y-112977619D01*
X189049523Y-113072857D01*
X189049523Y-113168095D01*
X189001904Y-113310952D01*
X188430476Y-113882380D01*
X189049523Y-113882380D01*
%TO.C,Q1*%
X172514761Y-109107619D02*
X172419523Y-109060000D01*
X172324285Y-108964761D01*
X172181428Y-108821904D01*
X172086190Y-108774285D01*
X171990952Y-108774285D01*
X172038571Y-109012380D02*
X171943333Y-108964761D01*
X171848095Y-108869523D01*
X171800476Y-108679047D01*
X171800476Y-108345714D01*
X171848095Y-108155238D01*
X171943333Y-108060000D01*
X172038571Y-108012380D01*
X172229047Y-108012380D01*
X172324285Y-108060000D01*
X172419523Y-108155238D01*
X172467142Y-108345714D01*
X172467142Y-108679047D01*
X172419523Y-108869523D01*
X172324285Y-108964761D01*
X172229047Y-109012380D01*
X172038571Y-109012380D01*
X173419523Y-109012380D02*
X172848095Y-109012380D01*
X173133809Y-109012380D02*
X173133809Y-108012380D01*
X173038571Y-108155238D01*
X172943333Y-108250476D01*
X172848095Y-108298095D01*
%TO.C,J201*%
D13*
X159131428Y-115521904D02*
X159131428Y-116093333D01*
X159093333Y-116207619D01*
X159017142Y-116283809D01*
X158902857Y-116321904D01*
X158826666Y-116321904D01*
X159474285Y-115598095D02*
X159512380Y-115560000D01*
X159588571Y-115521904D01*
X159779047Y-115521904D01*
X159855238Y-115560000D01*
X159893333Y-115598095D01*
X159931428Y-115674285D01*
X159931428Y-115750476D01*
X159893333Y-115864761D01*
X159436190Y-116321904D01*
X159931428Y-116321904D01*
X160426666Y-115521904D02*
X160502857Y-115521904D01*
X160579047Y-115560000D01*
X160617142Y-115598095D01*
X160655238Y-115674285D01*
X160693333Y-115826666D01*
X160693333Y-116017142D01*
X160655238Y-116169523D01*
X160617142Y-116245714D01*
X160579047Y-116283809D01*
X160502857Y-116321904D01*
X160426666Y-116321904D01*
X160350476Y-116283809D01*
X160312380Y-116245714D01*
X160274285Y-116169523D01*
X160236190Y-116017142D01*
X160236190Y-115826666D01*
X160274285Y-115674285D01*
X160312380Y-115598095D01*
X160350476Y-115560000D01*
X160426666Y-115521904D01*
X161455238Y-116321904D02*
X160998095Y-116321904D01*
X161226666Y-116321904D02*
X161226666Y-115521904D01*
X161150476Y-115636190D01*
X161074285Y-115712380D01*
X160998095Y-115750476D01*
%TO.C,J200*%
D12*
X166304285Y-130942380D02*
X166304285Y-131656666D01*
X166256666Y-131799523D01*
X166161428Y-131894761D01*
X166018571Y-131942380D01*
X165923333Y-131942380D01*
X166732857Y-131037619D02*
X166780476Y-130990000D01*
X166875714Y-130942380D01*
X167113809Y-130942380D01*
X167209047Y-130990000D01*
X167256666Y-131037619D01*
X167304285Y-131132857D01*
X167304285Y-131228095D01*
X167256666Y-131370952D01*
X166685238Y-131942380D01*
X167304285Y-131942380D01*
X167923333Y-130942380D02*
X168018571Y-130942380D01*
X168113809Y-130990000D01*
X168161428Y-131037619D01*
X168209047Y-131132857D01*
X168256666Y-131323333D01*
X168256666Y-131561428D01*
X168209047Y-131751904D01*
X168161428Y-131847142D01*
X168113809Y-131894761D01*
X168018571Y-131942380D01*
X167923333Y-131942380D01*
X167828095Y-131894761D01*
X167780476Y-131847142D01*
X167732857Y-131751904D01*
X167685238Y-131561428D01*
X167685238Y-131323333D01*
X167732857Y-131132857D01*
X167780476Y-131037619D01*
X167828095Y-130990000D01*
X167923333Y-130942380D01*
X168875714Y-130942380D02*
X168970952Y-130942380D01*
X169066190Y-130990000D01*
X169113809Y-131037619D01*
X169161428Y-131132857D01*
X169209047Y-131323333D01*
X169209047Y-131561428D01*
X169161428Y-131751904D01*
X169113809Y-131847142D01*
X169066190Y-131894761D01*
X168970952Y-131942380D01*
X168875714Y-131942380D01*
X168780476Y-131894761D01*
X168732857Y-131847142D01*
X168685238Y-131751904D01*
X168637619Y-131561428D01*
X168637619Y-131323333D01*
X168685238Y-131132857D01*
X168732857Y-131037619D01*
X168780476Y-130990000D01*
X168875714Y-130942380D01*
%TO.C,J101*%
X208044285Y-110972380D02*
X208044285Y-111686666D01*
X207996666Y-111829523D01*
X207901428Y-111924761D01*
X207758571Y-111972380D01*
X207663333Y-111972380D01*
X209044285Y-111972380D02*
X208472857Y-111972380D01*
X208758571Y-111972380D02*
X208758571Y-110972380D01*
X208663333Y-111115238D01*
X208568095Y-111210476D01*
X208472857Y-111258095D01*
X209663333Y-110972380D02*
X209758571Y-110972380D01*
X209853809Y-111020000D01*
X209901428Y-111067619D01*
X209949047Y-111162857D01*
X209996666Y-111353333D01*
X209996666Y-111591428D01*
X209949047Y-111781904D01*
X209901428Y-111877142D01*
X209853809Y-111924761D01*
X209758571Y-111972380D01*
X209663333Y-111972380D01*
X209568095Y-111924761D01*
X209520476Y-111877142D01*
X209472857Y-111781904D01*
X209425238Y-111591428D01*
X209425238Y-111353333D01*
X209472857Y-111162857D01*
X209520476Y-111067619D01*
X209568095Y-111020000D01*
X209663333Y-110972380D01*
X210949047Y-111972380D02*
X210377619Y-111972380D01*
X210663333Y-111972380D02*
X210663333Y-110972380D01*
X210568095Y-111115238D01*
X210472857Y-111210476D01*
X210377619Y-111258095D01*
%TO.C,J100*%
X196984285Y-76552380D02*
X196984285Y-77266666D01*
X196936666Y-77409523D01*
X196841428Y-77504761D01*
X196698571Y-77552380D01*
X196603333Y-77552380D01*
X197984285Y-77552380D02*
X197412857Y-77552380D01*
X197698571Y-77552380D02*
X197698571Y-76552380D01*
X197603333Y-76695238D01*
X197508095Y-76790476D01*
X197412857Y-76838095D01*
X198603333Y-76552380D02*
X198698571Y-76552380D01*
X198793809Y-76600000D01*
X198841428Y-76647619D01*
X198889047Y-76742857D01*
X198936666Y-76933333D01*
X198936666Y-77171428D01*
X198889047Y-77361904D01*
X198841428Y-77457142D01*
X198793809Y-77504761D01*
X198698571Y-77552380D01*
X198603333Y-77552380D01*
X198508095Y-77504761D01*
X198460476Y-77457142D01*
X198412857Y-77361904D01*
X198365238Y-77171428D01*
X198365238Y-76933333D01*
X198412857Y-76742857D01*
X198460476Y-76647619D01*
X198508095Y-76600000D01*
X198603333Y-76552380D01*
X199555714Y-76552380D02*
X199650952Y-76552380D01*
X199746190Y-76600000D01*
X199793809Y-76647619D01*
X199841428Y-76742857D01*
X199889047Y-76933333D01*
X199889047Y-77171428D01*
X199841428Y-77361904D01*
X199793809Y-77457142D01*
X199746190Y-77504761D01*
X199650952Y-77552380D01*
X199555714Y-77552380D01*
X199460476Y-77504761D01*
X199412857Y-77457142D01*
X199365238Y-77361904D01*
X199317619Y-77171428D01*
X199317619Y-76933333D01*
X199365238Y-76742857D01*
X199412857Y-76647619D01*
X199460476Y-76600000D01*
X199555714Y-76552380D01*
%TO.C,J11*%
X202340476Y-122892380D02*
X202340476Y-123606666D01*
X202292857Y-123749523D01*
X202197619Y-123844761D01*
X202054761Y-123892380D01*
X201959523Y-123892380D01*
X203340476Y-123892380D02*
X202769047Y-123892380D01*
X203054761Y-123892380D02*
X203054761Y-122892380D01*
X202959523Y-123035238D01*
X202864285Y-123130476D01*
X202769047Y-123178095D01*
X204292857Y-123892380D02*
X203721428Y-123892380D01*
X204007142Y-123892380D02*
X204007142Y-122892380D01*
X203911904Y-123035238D01*
X203816666Y-123130476D01*
X203721428Y-123178095D01*
%TO.C,J8*%
X177036666Y-115532380D02*
X177036666Y-116246666D01*
X176989047Y-116389523D01*
X176893809Y-116484761D01*
X176750952Y-116532380D01*
X176655714Y-116532380D01*
X177655714Y-115960952D02*
X177560476Y-115913333D01*
X177512857Y-115865714D01*
X177465238Y-115770476D01*
X177465238Y-115722857D01*
X177512857Y-115627619D01*
X177560476Y-115580000D01*
X177655714Y-115532380D01*
X177846190Y-115532380D01*
X177941428Y-115580000D01*
X177989047Y-115627619D01*
X178036666Y-115722857D01*
X178036666Y-115770476D01*
X177989047Y-115865714D01*
X177941428Y-115913333D01*
X177846190Y-115960952D01*
X177655714Y-115960952D01*
X177560476Y-116008571D01*
X177512857Y-116056190D01*
X177465238Y-116151428D01*
X177465238Y-116341904D01*
X177512857Y-116437142D01*
X177560476Y-116484761D01*
X177655714Y-116532380D01*
X177846190Y-116532380D01*
X177941428Y-116484761D01*
X177989047Y-116437142D01*
X178036666Y-116341904D01*
X178036666Y-116151428D01*
X177989047Y-116056190D01*
X177941428Y-116008571D01*
X177846190Y-115960952D01*
%TO.C,J7*%
X229966666Y-125482380D02*
X229966666Y-126196666D01*
X229919047Y-126339523D01*
X229823809Y-126434761D01*
X229680952Y-126482380D01*
X229585714Y-126482380D01*
X230347619Y-125482380D02*
X231014285Y-125482380D01*
X230585714Y-126482380D01*
%TO.C,J6*%
X169446666Y-107892380D02*
X169446666Y-108606666D01*
X169399047Y-108749523D01*
X169303809Y-108844761D01*
X169160952Y-108892380D01*
X169065714Y-108892380D01*
X170351428Y-107892380D02*
X170160952Y-107892380D01*
X170065714Y-107940000D01*
X170018095Y-107987619D01*
X169922857Y-108130476D01*
X169875238Y-108320952D01*
X169875238Y-108701904D01*
X169922857Y-108797142D01*
X169970476Y-108844761D01*
X170065714Y-108892380D01*
X170256190Y-108892380D01*
X170351428Y-108844761D01*
X170399047Y-108797142D01*
X170446666Y-108701904D01*
X170446666Y-108463809D01*
X170399047Y-108368571D01*
X170351428Y-108320952D01*
X170256190Y-108273333D01*
X170065714Y-108273333D01*
X169970476Y-108320952D01*
X169922857Y-108368571D01*
X169875238Y-108463809D01*
%TO.C,J5*%
X162056666Y-102502380D02*
X162056666Y-103216666D01*
X162009047Y-103359523D01*
X161913809Y-103454761D01*
X161770952Y-103502380D01*
X161675714Y-103502380D01*
X163009047Y-102502380D02*
X162532857Y-102502380D01*
X162485238Y-102978571D01*
X162532857Y-102930952D01*
X162628095Y-102883333D01*
X162866190Y-102883333D01*
X162961428Y-102930952D01*
X163009047Y-102978571D01*
X163056666Y-103073809D01*
X163056666Y-103311904D01*
X163009047Y-103407142D01*
X162961428Y-103454761D01*
X162866190Y-103502380D01*
X162628095Y-103502380D01*
X162532857Y-103454761D01*
X162485238Y-103407142D01*
%TO.C,J4*%
X228506666Y-78242380D02*
X228506666Y-78956666D01*
X228459047Y-79099523D01*
X228363809Y-79194761D01*
X228220952Y-79242380D01*
X228125714Y-79242380D01*
X229411428Y-78575714D02*
X229411428Y-79242380D01*
X229173333Y-78194761D02*
X228935238Y-78909047D01*
X229554285Y-78909047D01*
%TO.C,J1*%
X156756666Y-108762380D02*
X156756666Y-109476666D01*
X156709047Y-109619523D01*
X156613809Y-109714761D01*
X156470952Y-109762380D01*
X156375714Y-109762380D01*
X157756666Y-109762380D02*
X157185238Y-109762380D01*
X157470952Y-109762380D02*
X157470952Y-108762380D01*
X157375714Y-108905238D01*
X157280476Y-109000476D01*
X157185238Y-109048095D01*
%TO.C,H2*%
X156908095Y-100712380D02*
X156908095Y-99712380D01*
X156908095Y-100188571D02*
X157479523Y-100188571D01*
X157479523Y-100712380D02*
X157479523Y-99712380D01*
X157908095Y-99807619D02*
X157955714Y-99760000D01*
X158050952Y-99712380D01*
X158289047Y-99712380D01*
X158384285Y-99760000D01*
X158431904Y-99807619D01*
X158479523Y-99902857D01*
X158479523Y-99998095D01*
X158431904Y-100140952D01*
X157860476Y-100712380D01*
X158479523Y-100712380D01*
%TO.C,H1*%
X235908095Y-100712380D02*
X235908095Y-99712380D01*
X235908095Y-100188571D02*
X236479523Y-100188571D01*
X236479523Y-100712380D02*
X236479523Y-99712380D01*
X237479523Y-100712380D02*
X236908095Y-100712380D01*
X237193809Y-100712380D02*
X237193809Y-99712380D01*
X237098571Y-99855238D01*
X237003333Y-99950476D01*
X236908095Y-99998095D01*
%TO.C,D2*%
X181511904Y-127732380D02*
X181511904Y-126732380D01*
X181750000Y-126732380D01*
X181892857Y-126780000D01*
X181988095Y-126875238D01*
X182035714Y-126970476D01*
X182083333Y-127160952D01*
X182083333Y-127303809D01*
X182035714Y-127494285D01*
X181988095Y-127589523D01*
X181892857Y-127684761D01*
X181750000Y-127732380D01*
X181511904Y-127732380D01*
X182464285Y-126827619D02*
X182511904Y-126780000D01*
X182607142Y-126732380D01*
X182845238Y-126732380D01*
X182940476Y-126780000D01*
X182988095Y-126827619D01*
X183035714Y-126922857D01*
X183035714Y-127018095D01*
X182988095Y-127160952D01*
X182416666Y-127732380D01*
X183035714Y-127732380D01*
X183662380Y-123351904D02*
X182662380Y-123351904D01*
X183662380Y-122780476D02*
X183090952Y-123209047D01*
X182662380Y-122780476D02*
X183233809Y-123351904D01*
%TO.C,D1*%
X161121904Y-107492380D02*
X161121904Y-106492380D01*
X161360000Y-106492380D01*
X161502857Y-106540000D01*
X161598095Y-106635238D01*
X161645714Y-106730476D01*
X161693333Y-106920952D01*
X161693333Y-107063809D01*
X161645714Y-107254285D01*
X161598095Y-107349523D01*
X161502857Y-107444761D01*
X161360000Y-107492380D01*
X161121904Y-107492380D01*
X162645714Y-107492380D02*
X162074285Y-107492380D01*
X162360000Y-107492380D02*
X162360000Y-106492380D01*
X162264761Y-106635238D01*
X162169523Y-106730476D01*
X162074285Y-106778095D01*
X163362380Y-106211904D02*
X162362380Y-106211904D01*
X163362380Y-105640476D02*
X162790952Y-106069047D01*
X162362380Y-105640476D02*
X162933809Y-106211904D01*
%TD*%
M02*
