M48
; DRILL file {KiCad (5.1.9)-1} date 03/31/22 17:21:37
; FORMAT={-:-/ absolute / inch / decimal}
; #@! TF.CreationDate,2022-03-31T17:21:37+02:00
; #@! TF.GenerationSoftware,Kicad,Pcbnew,(5.1.9)-1
; #@! TF.FileFunction,Plated,1,2,PTH
FMAT,2
INCH
T1C0.0098
T2C0.0157
T3C0.0276
T4C0.0295
T5C0.0315
T6C0.0394
T7C0.0472
%
G90
G05
T1
X7.3335Y-4.8689
X7.3335Y-4.9083
T2
X6.9126Y-3.2087
X7.0654Y-4.9929
X7.1441Y-4.8283
T3
X6.6287Y-3.6303
X6.6287Y-3.9303
X6.7583Y-3.6303
X6.7583Y-3.9303
X6.8736Y-4.2169
X6.8866Y-3.628
X6.8866Y-3.928
X7.1736Y-4.2169
X7.1772Y-4.2972
X7.1772Y-4.5972
X7.3217Y-4.2433
X7.3217Y-4.5433
X7.4476Y-4.6531
X7.7476Y-4.6531
X8.8866Y-3.6331
X8.8866Y-3.9331
X9.0756Y-3.6335
X9.0756Y-3.9335
T4
X6.5657Y-3.1563
X6.5665Y-3.3252
X6.6157Y-3.1563
X6.6165Y-3.3252
X6.6587Y-4.1539
X6.6657Y-3.1563
X6.6665Y-3.3252
X6.7087Y-4.1539
X6.7587Y-4.1539
X7.0283Y-3.1642
X7.0283Y-3.335
X7.0783Y-3.1642
X7.0783Y-3.335
X7.1283Y-3.1642
X7.1283Y-3.335
X7.5236Y-4.4528
X7.5736Y-4.4028
X7.5736Y-4.5028
X7.7358Y-4.8051
X7.7709Y-4.4028
X7.7709Y-4.4528
X7.7709Y-4.5028
X7.7858Y-4.7551
X7.7858Y-4.8551
X8.5008Y-3.2441
X8.5008Y-3.2941
X8.5008Y-3.3441
X8.6665Y-3.2441
X8.6665Y-3.2941
X8.6665Y-3.3441
T5
X6.1677Y-4.8283
X6.2677Y-4.8283
X6.3307Y-4.3433
X6.3307Y-4.4433
X6.4276Y-4.7713
X6.4291Y-4.6453
X6.4748Y-4.8925
X6.5213Y-4.0075
X6.5213Y-4.1075
X6.5276Y-4.7713
X6.5291Y-4.6453
X6.5492Y-5.015
X6.5748Y-4.8925
X6.6346Y-4.676
X6.6346Y-4.776
X6.6492Y-5.015
X6.7559Y-5.0402
X6.7591Y-4.6587
X6.7591Y-4.7587
X6.7957Y-3.3012
X6.7957Y-3.4012
X6.8559Y-5.0402
X6.8858Y-4.6587
X6.8858Y-4.7587
X7.0244Y-4.8323
X7.0244Y-4.9323
X7.2626Y-3.3016
X7.2626Y-3.4016
X7.2937Y-5.0008
X7.3205Y-4.6878
X7.3205Y-4.7878
X7.3937Y-5.0008
X7.4413Y-4.8783
X7.4795Y-3.2941
X7.4795Y-3.3941
X7.5413Y-4.8783
X7.7157Y-4.9917
X7.7193Y-3.2886
X7.7193Y-3.3886
X7.8157Y-4.9917
X7.9362Y-3.2858
X7.9362Y-3.3858
X8.3272Y-3.2587
X8.3272Y-3.3587
X8.6717Y-4.4614
X8.7717Y-4.4614
X8.915Y-4.639
X8.915Y-4.739
T6
X6.1787Y-4.4051
X6.1787Y-4.5051
X6.1791Y-4.6606
X6.2791Y-4.6606
X6.3843Y-3.8457
X6.3843Y-3.9457
X6.6902Y-4.3728
X6.6902Y-4.4728
X6.7449Y-5.1756
X6.8449Y-5.1756
X6.8858Y-4.4185
X6.8858Y-4.5185
X7.2374Y-3.5157
X7.2374Y-4.1157
X7.3374Y-3.5157
X7.3374Y-4.1157
X7.4374Y-3.5157
X7.4374Y-4.1157
X7.5374Y-3.5157
X7.5374Y-4.1157
X7.5539Y-3.1299
X7.6374Y-3.5157
X7.6374Y-4.1157
X7.6539Y-3.1299
X7.7374Y-3.5157
X7.7374Y-4.1157
X7.7539Y-3.1299
X7.8374Y-3.5157
X7.8374Y-4.1157
X7.8539Y-3.1299
X7.9374Y-3.5157
X7.9374Y-4.1157
X7.948Y-4.7681
X7.9539Y-3.1299
X8.0319Y-4.2898
X8.0374Y-3.5157
X8.0374Y-4.1157
X8.048Y-4.7681
X8.0539Y-3.1299
X8.1319Y-4.2898
X8.1374Y-3.5157
X8.1374Y-4.1157
X8.2106Y-4.635
X8.2106Y-4.935
X8.2319Y-4.2898
X8.2374Y-3.5157
X8.2374Y-4.1157
X8.3319Y-4.2898
X8.3374Y-3.5157
X8.3374Y-4.1157
X8.4319Y-4.2898
X8.4374Y-3.5157
X8.4374Y-4.1157
X8.5374Y-3.5157
X8.5374Y-4.1157
X8.6374Y-3.5157
X8.6374Y-4.1157
X8.7799Y-4.635
X8.7799Y-4.9351
X9.0094Y-3.1937
X9.0094Y-3.2937
X9.0094Y-3.3937
X9.0094Y-3.4937
X9.074Y-4.7598
X9.074Y-4.8598
T7
X6.4972Y-4.2445
X6.4972Y-4.4445
X7.1657Y-4.7209
X7.1657Y-4.9209
T0
M30
