%TF.GenerationSoftware,KiCad,Pcbnew,(5.1.9)-1*%
%TF.CreationDate,2022-03-31T17:20:55+02:00*%
%TF.ProjectId,Balance ruche,42616c61-6e63-4652-9072-756368652e6b,rev?*%
%TF.SameCoordinates,Original*%
%TF.FileFunction,Soldermask,Bot*%
%TF.FilePolarity,Negative*%
%FSLAX46Y46*%
G04 Gerber Fmt 4.6, Leading zero omitted, Abs format (unit mm)*
G04 Created by KiCad (PCBNEW (5.1.9)-1) date 2022-03-31 17:20:55*
%MOMM*%
%LPD*%
G01*
G04 APERTURE LIST*
%ADD10R,1.050000X1.500000*%
%ADD11O,1.050000X1.500000*%
%ADD12O,1.400000X1.400000*%
%ADD13C,1.400000*%
%ADD14O,1.600000X1.600000*%
%ADD15R,1.600000X1.600000*%
%ADD16C,1.600000*%
%ADD17O,2.400000X2.400000*%
%ADD18R,2.400000X2.400000*%
%ADD19R,1.500000X1.050000*%
%ADD20O,1.500000X1.050000*%
%ADD21R,1.300000X1.300000*%
%ADD22C,1.300000*%
%ADD23O,1.700000X1.700000*%
%ADD24R,1.700000X1.700000*%
%ADD25C,3.200000*%
G04 APERTURE END LIST*
D10*
%TO.C,Q8*%
X181060000Y-84710000D03*
D11*
X178520000Y-84710000D03*
X179790000Y-84710000D03*
%TD*%
D12*
%TO.C,R6*%
X168370000Y-92210000D03*
D13*
X168370000Y-99830000D03*
%TD*%
D12*
%TO.C,R5*%
X171660000Y-92210000D03*
D13*
X171660000Y-99830000D03*
%TD*%
D14*
%TO.C,A1*%
X183830000Y-104540000D03*
X183830000Y-89300000D03*
X219390000Y-104540000D03*
X186370000Y-89300000D03*
X216850000Y-104540000D03*
X188910000Y-89300000D03*
X214310000Y-104540000D03*
X191450000Y-89300000D03*
X211770000Y-104540000D03*
X193990000Y-89300000D03*
X209230000Y-104540000D03*
X196530000Y-89300000D03*
X206690000Y-104540000D03*
X199070000Y-89300000D03*
X204150000Y-104540000D03*
X201610000Y-89300000D03*
X201610000Y-104540000D03*
X204150000Y-89300000D03*
X199070000Y-104540000D03*
X206690000Y-89300000D03*
X196530000Y-104540000D03*
X209230000Y-89300000D03*
X193990000Y-104540000D03*
X211770000Y-89300000D03*
X191450000Y-104540000D03*
X214310000Y-89300000D03*
X188910000Y-104540000D03*
X216850000Y-89300000D03*
X186370000Y-104540000D03*
D15*
X219390000Y-89300000D03*
%TD*%
D12*
%TO.C,R21*%
X182300000Y-109150000D03*
D13*
X182300000Y-116770000D03*
%TD*%
D12*
%TO.C,R20*%
X185970000Y-115400000D03*
D13*
X185970000Y-107780000D03*
%TD*%
D12*
%TO.C,R7*%
X174590000Y-107110000D03*
D13*
X182210000Y-107110000D03*
%TD*%
D12*
%TO.C,R22*%
X196790000Y-118190000D03*
D13*
X189170000Y-118190000D03*
%TD*%
D12*
%TO.C,R8*%
X174920000Y-92150000D03*
D13*
X174920000Y-99770000D03*
%TD*%
D12*
%TO.C,R11*%
X230520000Y-92290000D03*
D13*
X230520000Y-99910000D03*
%TD*%
D12*
%TO.C,R10*%
X225720000Y-92280000D03*
D13*
X225720000Y-99900000D03*
%TD*%
D14*
%TO.C,C2*%
X166350000Y-127380000D03*
D16*
X168890000Y-127380000D03*
%TD*%
D14*
%TO.C,C21*%
X178420000Y-125280000D03*
D16*
X178420000Y-122740000D03*
%TD*%
D14*
%TO.C,C1*%
X185260000Y-127020000D03*
D16*
X187800000Y-127020000D03*
%TD*%
D14*
%TO.C,C20*%
X189010000Y-123910000D03*
D16*
X191550000Y-123910000D03*
%TD*%
D14*
%TO.C,R26*%
X172610000Y-86390000D03*
D16*
X172610000Y-83850000D03*
%TD*%
D14*
%TO.C,R25*%
X184470000Y-86400000D03*
D16*
X184470000Y-83860000D03*
%TD*%
D14*
%TO.C,R24*%
X211510000Y-85310000D03*
D16*
X211510000Y-82770000D03*
%TD*%
D14*
%TO.C,R23*%
X220260000Y-113320000D03*
D16*
X222800000Y-113320000D03*
%TD*%
D14*
%TO.C,R19*%
X165800000Y-121190000D03*
D16*
X163260000Y-121190000D03*
%TD*%
D14*
%TO.C,R18*%
X165840000Y-117990000D03*
D16*
X163300000Y-117990000D03*
%TD*%
D14*
%TO.C,R17*%
X168520000Y-121310000D03*
D16*
X168520000Y-118770000D03*
%TD*%
D14*
%TO.C,R16*%
X167000000Y-124270000D03*
D16*
X164460000Y-124270000D03*
%TD*%
D14*
%TO.C,R15*%
X174900000Y-118330000D03*
D16*
X174900000Y-120870000D03*
%TD*%
D14*
%TO.C,R14*%
X159200000Y-122640000D03*
D16*
X156660000Y-122640000D03*
%TD*%
D14*
%TO.C,R13*%
X171680000Y-118330000D03*
D16*
X171680000Y-120870000D03*
%TD*%
D14*
%TO.C,R12*%
X185940000Y-121610000D03*
D16*
X185940000Y-119070000D03*
%TD*%
D14*
%TO.C,R9*%
X196070000Y-86070000D03*
D16*
X196070000Y-83530000D03*
%TD*%
D14*
%TO.C,R4*%
X189980000Y-86210000D03*
D16*
X189980000Y-83670000D03*
%TD*%
D14*
%TO.C,R3*%
X201580000Y-86000000D03*
D16*
X201580000Y-83460000D03*
%TD*%
D14*
%TO.C,R2*%
X226440000Y-117830000D03*
D16*
X226440000Y-120370000D03*
%TD*%
D14*
%TO.C,R1*%
X165640000Y-104330000D03*
D16*
X165640000Y-101790000D03*
%TD*%
D14*
%TO.C,F3*%
X195980000Y-126790000D03*
D16*
X198520000Y-126790000D03*
%TD*%
D14*
%TO.C,F2*%
X171600000Y-128020000D03*
D16*
X174140000Y-128020000D03*
%TD*%
D14*
%TO.C,F1*%
X160800000Y-110320000D03*
D16*
X160800000Y-112860000D03*
%TD*%
D17*
%TO.C,U3*%
X223010000Y-125352400D03*
X223010000Y-117730000D03*
X208550000Y-125350000D03*
D18*
X208550000Y-117730000D03*
%TD*%
D10*
%TO.C,Q10*%
X169330000Y-84460000D03*
D11*
X166790000Y-84460000D03*
X168060000Y-84460000D03*
%TD*%
D10*
%TO.C,Q9*%
X166770000Y-80170000D03*
D11*
X169310000Y-80170000D03*
X168040000Y-80170000D03*
%TD*%
D10*
%TO.C,Q7*%
X178520000Y-80370000D03*
D11*
X181060000Y-80370000D03*
X179790000Y-80370000D03*
%TD*%
D19*
%TO.C,Q6*%
X220130000Y-82400000D03*
D20*
X220130000Y-84940000D03*
X220130000Y-83670000D03*
%TD*%
D19*
%TO.C,Q5*%
X215920000Y-84940000D03*
D20*
X215920000Y-82400000D03*
X215920000Y-83670000D03*
%TD*%
D21*
%TO.C,Q4*%
X197760000Y-123320000D03*
D22*
X197760000Y-120780000D03*
X196490000Y-122050000D03*
%TD*%
D19*
%TO.C,Q3*%
X197380000Y-114370000D03*
D20*
X197380000Y-111830000D03*
X197380000Y-113100000D03*
%TD*%
D21*
%TO.C,Q2*%
X192370000Y-114370000D03*
D22*
X192370000Y-111830000D03*
X191100000Y-113100000D03*
%TD*%
D10*
%TO.C,Q1*%
X169130000Y-105510000D03*
D11*
X171670000Y-105510000D03*
X170400000Y-105510000D03*
%TD*%
D23*
%TO.C,J201*%
X159490000Y-118380000D03*
D24*
X156950000Y-118380000D03*
%TD*%
D23*
%TO.C,J200*%
X173860000Y-131460000D03*
D24*
X171320000Y-131460000D03*
%TD*%
D23*
%TO.C,J101*%
X214170000Y-108960000D03*
X211630000Y-108960000D03*
X209090000Y-108960000D03*
X206550000Y-108960000D03*
D24*
X204010000Y-108960000D03*
%TD*%
D23*
%TO.C,J100*%
X204570000Y-79500000D03*
X202030000Y-79500000D03*
X199490000Y-79500000D03*
X196950000Y-79500000D03*
X194410000Y-79500000D03*
D24*
X191870000Y-79500000D03*
%TD*%
D23*
%TO.C,J11*%
X201880000Y-121110000D03*
D24*
X204420000Y-121110000D03*
%TD*%
D23*
%TO.C,J8*%
X174900000Y-114770000D03*
D24*
X174900000Y-112230000D03*
%TD*%
D23*
%TO.C,J7*%
X230480000Y-120900000D03*
D24*
X230480000Y-123440000D03*
%TD*%
D23*
%TO.C,J6*%
X169930000Y-113610000D03*
D24*
X169930000Y-111070000D03*
%TD*%
D23*
%TO.C,J5*%
X162160000Y-100220000D03*
D24*
X162160000Y-97680000D03*
%TD*%
D23*
%TO.C,J4*%
X228840000Y-88740000D03*
X228840000Y-86200000D03*
X228840000Y-83660000D03*
D24*
X228840000Y-81120000D03*
%TD*%
D23*
%TO.C,J1*%
X156940000Y-111890000D03*
D24*
X156940000Y-114430000D03*
%TD*%
D25*
%TO.C,H2*%
X157670000Y-104460000D03*
%TD*%
%TO.C,H1*%
X236670000Y-104460000D03*
%TD*%
D17*
%TO.C,D2*%
X182010000Y-119910000D03*
D18*
X182010000Y-124990000D03*
%TD*%
D17*
%TO.C,D1*%
X165030000Y-107810000D03*
D18*
X165030000Y-112890000D03*
%TD*%
M02*
